<svg width="1156" height="567" viewBox="0 0 1156 567" fill="none" xmlns="http://www.w3.org/2000/svg">
<path d="M1155.97 135.111C1156.01 60.1748 1094.71 -0.490512 1019.71 0.208529C944.451 0.208529 883.444 61.1559 883.444 136.338C883.444 145.834 884.418 155.101 886.271 164.05C889.93 181.718 888.235 200.122 881.295 216.78C865.615 254.402 833.37 283.402 793.665 294.701C779.859 298.63 765.324 299.063 751.227 296.377C734.086 293.111 715.643 293.164 698.538 296.537C685.239 299.157 671.506 298.944 658.383 295.551C620.843 285.834 589.638 260.387 572.247 226.669C562.487 207.75 559.967 186.006 564.468 165.207C566.481 155.907 567.541 146.251 567.541 136.346C567.97 60.3097 504.237 -0.482336 430.663 4.33221e-05C354.781 -0.155299 294.821 62.6726 295.013 136.333C295.013 146.239 296.077 155.894 298.09 165.199C302.534 185.724 300.202 207.206 290.688 225.929C272.593 261.539 239.141 288.046 199.039 296.761C186.583 296.855 174.516 296.945 162.06 297.039C92.1806 283.255 19.0687 328.823 3.75644 399.79C-16.3967 481.77 47.1931 565.103 131.493 566.91C210.824 569.743 276.133 503.898 272.573 424.674C272.168 415.676 270.887 406.903 268.816 398.445C265.195 383.663 265.465 368.174 269.463 353.486C276.742 326.742 292.051 303.302 312.642 285.908C335.438 266.654 366.329 259.712 395.112 267.614C406.631 270.774 418.755 272.467 431.281 272.463C443.942 272.463 456.197 270.737 467.827 267.508C496.741 259.483 527.857 266.355 550.833 285.642C568.646 300.596 582.538 320.063 590.743 342.277C597.147 359.614 597.74 378.5 593.03 396.373C570.712 481.03 639.462 570.463 730.145 566.097C815.787 564.188 877.555 479.865 858.229 399.189C853.458 379.269 855.737 358.265 864.53 339.763C878.214 310.975 901.796 287.801 930.886 274.629C949.247 266.314 969.879 264.712 989.509 269.303C1072.14 288.618 1157.88 223.268 1155.98 135.111H1155.97Z" fill="#A4E48D"/>
<path d="M136.448 547.177C200.744 547.177 252.866 495.107 252.866 430.875C252.866 366.643 200.744 314.573 136.448 314.573C72.1523 314.573 20.0304 366.643 20.0304 430.875C20.0304 495.107 72.1523 547.177 136.448 547.177Z" fill="#97D4E7"/>
<path d="M431.277 252.64C495.573 252.64 547.695 200.57 547.695 136.338C547.695 72.1055 495.573 20.0351 431.277 20.0351C366.981 20.0351 314.859 72.1055 314.859 136.338C314.859 200.57 366.981 252.64 431.277 252.64Z" fill="#97D4E7"/>
<path d="M725.288 546.36C789.583 546.36 841.705 494.289 841.705 430.057C841.705 365.825 789.583 313.755 725.288 313.755C660.992 313.755 608.87 365.825 608.87 430.057C608.87 494.289 660.992 546.36 725.288 546.36Z" fill="#97D4E7"/>
<path d="M1019.71 252.64C1084 252.64 1136.13 200.57 1136.13 136.338C1136.13 72.1055 1084 20.0351 1019.71 20.0351C955.412 20.0351 903.29 72.1055 903.29 136.338C903.29 200.57 955.412 252.64 1019.71 252.64Z" fill="#97D4E7"/>
<path d="M66.65 451V444.18L81.06 430.705C82.0867 429.752 82.8383 428.908 83.315 428.175C83.8283 427.442 84.1583 426.782 84.305 426.195C84.4883 425.572 84.58 425.003 84.58 424.49C84.58 423.243 84.1583 422.272 83.315 421.575C82.5083 420.878 81.28 420.53 79.63 420.53C78.2367 420.53 76.935 420.842 75.725 421.465C74.515 422.088 73.525 423.023 72.755 424.27L64.67 419.76C66.1 417.34 68.1717 415.397 70.885 413.93C73.5983 412.463 76.8433 411.73 80.62 411.73C83.59 411.73 86.1933 412.207 88.43 413.16C90.6667 414.113 92.4083 415.47 93.655 417.23C94.9383 418.99 95.58 421.062 95.58 423.445C95.58 424.692 95.415 425.938 95.085 427.185C94.755 428.395 94.1133 429.697 93.16 431.09C92.2433 432.447 90.8683 433.968 89.035 435.655L77.595 446.215L75.78 442.365H96.625V451H66.65ZM116.79 451.77C113.49 451.77 110.556 450.982 107.99 449.405C105.46 447.828 103.461 445.555 101.995 442.585C100.528 439.615 99.7948 436.003 99.7948 431.75C99.7948 427.497 100.528 423.885 101.995 420.915C103.461 417.945 105.46 415.672 107.99 414.095C110.556 412.518 113.49 411.73 116.79 411.73C120.053 411.73 122.95 412.518 125.48 414.095C128.046 415.672 130.063 417.945 131.53 420.915C132.996 423.885 133.73 427.497 133.73 431.75C133.73 436.003 132.996 439.615 131.53 442.585C130.063 445.555 128.046 447.828 125.48 449.405C122.95 450.982 120.053 451.77 116.79 451.77ZM116.79 442.86C117.963 442.86 118.99 442.493 119.87 441.76C120.786 441.027 121.501 439.853 122.015 438.24C122.528 436.59 122.785 434.427 122.785 431.75C122.785 429.037 122.528 426.873 122.015 425.26C121.501 423.647 120.786 422.473 119.87 421.74C118.99 421.007 117.963 420.64 116.79 420.64C115.616 420.64 114.571 421.007 113.655 421.74C112.775 422.473 112.06 423.647 111.51 425.26C110.996 426.873 110.74 429.037 110.74 431.75C110.74 434.427 110.996 436.59 111.51 438.24C112.06 439.853 112.775 441.027 113.655 441.76C114.571 442.493 115.616 442.86 116.79 442.86ZM154.441 451.77C151.141 451.77 148.208 450.982 145.641 449.405C143.111 447.828 141.113 445.555 139.646 442.585C138.18 439.615 137.446 436.003 137.446 431.75C137.446 427.497 138.18 423.885 139.646 420.915C141.113 417.945 143.111 415.672 145.641 414.095C148.208 412.518 151.141 411.73 154.441 411.73C157.705 411.73 160.601 412.518 163.131 414.095C165.698 415.672 167.715 417.945 169.181 420.915C170.648 423.885 171.381 427.497 171.381 431.75C171.381 436.003 170.648 439.615 169.181 442.585C167.715 445.555 165.698 447.828 163.131 449.405C160.601 450.982 157.705 451.77 154.441 451.77ZM154.441 442.86C155.615 442.86 156.641 442.493 157.521 441.76C158.438 441.027 159.153 439.853 159.666 438.24C160.18 436.59 160.436 434.427 160.436 431.75C160.436 429.037 160.18 426.873 159.666 425.26C159.153 423.647 158.438 422.473 157.521 421.74C156.641 421.007 155.615 420.64 154.441 420.64C153.268 420.64 152.223 421.007 151.306 421.74C150.426 422.473 149.711 423.647 149.161 425.26C148.648 426.873 148.391 429.037 148.391 431.75C148.391 434.427 148.648 436.59 149.161 438.24C149.711 439.853 150.426 441.027 151.306 441.76C152.223 442.493 153.268 442.86 154.441 442.86ZM188.573 451.77C185.933 451.77 183.274 451.44 180.598 450.78C177.921 450.12 175.611 449.185 173.668 447.975L177.573 439.78C179.149 440.807 180.854 441.595 182.688 442.145C184.558 442.695 186.409 442.97 188.243 442.97C190.076 442.97 191.561 442.622 192.698 441.925C193.834 441.192 194.403 440.183 194.403 438.9C194.403 438.13 194.183 437.452 193.743 436.865C193.303 436.242 192.551 435.783 191.488 435.49C190.424 435.16 188.903 434.995 186.923 434.995H176.473L178.398 412.5H202.928V420.915H182.248L187.803 416.13L186.538 431.31L180.983 426.525H189.508C193.321 426.525 196.383 427.075 198.693 428.175C201.003 429.238 202.689 430.687 203.753 432.52C204.816 434.317 205.348 436.352 205.348 438.625C205.348 440.898 204.743 443.043 203.533 445.06C202.359 447.04 200.544 448.653 198.088 449.9C195.631 451.147 192.459 451.77 188.573 451.77Z" fill="white"/>
<path d="M360.65 156V149.18L375.06 135.705C376.087 134.752 376.838 133.908 377.315 133.175C377.828 132.442 378.158 131.782 378.305 131.195C378.488 130.572 378.58 130.003 378.58 129.49C378.58 128.243 378.158 127.272 377.315 126.575C376.508 125.878 375.28 125.53 373.63 125.53C372.237 125.53 370.935 125.842 369.725 126.465C368.515 127.088 367.525 128.023 366.755 129.27L358.67 124.76C360.1 122.34 362.172 120.397 364.885 118.93C367.598 117.463 370.843 116.73 374.62 116.73C377.59 116.73 380.193 117.207 382.43 118.16C384.667 119.113 386.408 120.47 387.655 122.23C388.938 123.99 389.58 126.062 389.58 128.445C389.58 129.692 389.415 130.938 389.085 132.185C388.755 133.395 388.113 134.697 387.16 136.09C386.243 137.447 384.868 138.968 383.035 140.655L371.595 151.215L369.78 147.365H390.625V156H360.65ZM410.79 156.77C407.49 156.77 404.556 155.982 401.99 154.405C399.46 152.828 397.461 150.555 395.995 147.585C394.528 144.615 393.795 141.003 393.795 136.75C393.795 132.497 394.528 128.885 395.995 125.915C397.461 122.945 399.46 120.672 401.99 119.095C404.556 117.518 407.49 116.73 410.79 116.73C414.053 116.73 416.95 117.518 419.48 119.095C422.046 120.672 424.063 122.945 425.53 125.915C426.996 128.885 427.73 132.497 427.73 136.75C427.73 141.003 426.996 144.615 425.53 147.585C424.063 150.555 422.046 152.828 419.48 154.405C416.95 155.982 414.053 156.77 410.79 156.77ZM410.79 147.86C411.963 147.86 412.99 147.493 413.87 146.76C414.786 146.027 415.501 144.853 416.015 143.24C416.528 141.59 416.785 139.427 416.785 136.75C416.785 134.037 416.528 131.873 416.015 130.26C415.501 128.647 414.786 127.473 413.87 126.74C412.99 126.007 411.963 125.64 410.79 125.64C409.616 125.64 408.571 126.007 407.655 126.74C406.775 127.473 406.06 128.647 405.51 130.26C404.996 131.873 404.74 134.037 404.74 136.75C404.74 139.427 404.996 141.59 405.51 143.24C406.06 144.853 406.775 146.027 407.655 146.76C408.571 147.493 409.616 147.86 410.79 147.86ZM448.441 156.77C445.141 156.77 442.208 155.982 439.641 154.405C437.111 152.828 435.113 150.555 433.646 147.585C432.18 144.615 431.446 141.003 431.446 136.75C431.446 132.497 432.18 128.885 433.646 125.915C435.113 122.945 437.111 120.672 439.641 119.095C442.208 117.518 445.141 116.73 448.441 116.73C451.705 116.73 454.601 117.518 457.131 119.095C459.698 120.672 461.715 122.945 463.181 125.915C464.648 128.885 465.381 132.497 465.381 136.75C465.381 141.003 464.648 144.615 463.181 147.585C461.715 150.555 459.698 152.828 457.131 154.405C454.601 155.982 451.705 156.77 448.441 156.77ZM448.441 147.86C449.615 147.86 450.641 147.493 451.521 146.76C452.438 146.027 453.153 144.853 453.666 143.24C454.18 141.59 454.436 139.427 454.436 136.75C454.436 134.037 454.18 131.873 453.666 130.26C453.153 128.647 452.438 127.473 451.521 126.74C450.641 126.007 449.615 125.64 448.441 125.64C447.268 125.64 446.223 126.007 445.306 126.74C444.426 127.473 443.711 128.647 443.161 130.26C442.648 131.873 442.391 134.037 442.391 136.75C442.391 139.427 442.648 141.59 443.161 143.24C443.711 144.853 444.426 146.027 445.306 146.76C446.223 147.493 447.268 147.86 448.441 147.86ZM486.918 156.77C483.324 156.77 480.189 156.055 477.513 154.625C474.873 153.195 472.801 151.068 471.298 148.245C469.831 145.422 469.098 141.938 469.098 137.795C469.098 133.322 469.959 129.527 471.683 126.41C473.443 123.257 475.844 120.855 478.888 119.205C481.968 117.555 485.524 116.73 489.558 116.73C491.721 116.73 493.793 116.987 495.773 117.5C497.789 117.977 499.494 118.655 500.888 119.535L496.928 127.345C495.828 126.575 494.673 126.062 493.463 125.805C492.289 125.512 491.079 125.365 489.833 125.365C486.863 125.365 484.479 126.263 482.683 128.06C480.923 129.857 480.043 132.478 480.043 135.925C480.043 136.548 480.043 137.208 480.043 137.905C480.079 138.565 480.153 139.243 480.263 139.94L477.513 137.685C478.246 136.328 479.126 135.192 480.153 134.275C481.216 133.358 482.463 132.662 483.893 132.185C485.359 131.708 486.991 131.47 488.788 131.47C491.208 131.47 493.408 131.983 495.388 133.01C497.404 134 499.018 135.412 500.228 137.245C501.438 139.042 502.043 141.168 502.043 143.625C502.043 146.302 501.364 148.63 500.008 150.61C498.651 152.553 496.836 154.075 494.563 155.175C492.289 156.238 489.741 156.77 486.918 156.77ZM486.258 149.015C487.284 149.015 488.183 148.813 488.953 148.41C489.759 148.007 490.383 147.438 490.823 146.705C491.263 145.972 491.483 145.11 491.483 144.12C491.483 142.653 490.988 141.48 489.998 140.6C489.044 139.72 487.779 139.28 486.203 139.28C485.139 139.28 484.204 139.482 483.398 139.885C482.628 140.288 482.004 140.857 481.528 141.59C481.088 142.323 480.868 143.185 480.868 144.175C480.868 145.128 481.088 145.972 481.528 146.705C481.968 147.402 482.591 147.97 483.398 148.41C484.204 148.813 485.158 149.015 486.258 149.015Z" fill="white"/>
<path d="M673.65 450V443.18L688.06 429.705C689.087 428.752 689.838 427.908 690.315 427.175C690.828 426.442 691.158 425.782 691.305 425.195C691.488 424.572 691.58 424.003 691.58 423.49C691.58 422.243 691.158 421.272 690.315 420.575C689.508 419.878 688.28 419.53 686.63 419.53C685.237 419.53 683.935 419.842 682.725 420.465C681.515 421.088 680.525 422.023 679.755 423.27L671.67 418.76C673.1 416.34 675.172 414.397 677.885 412.93C680.598 411.463 683.843 410.73 687.62 410.73C690.59 410.73 693.193 411.207 695.43 412.16C697.667 413.113 699.408 414.47 700.655 416.23C701.938 417.99 702.58 420.062 702.58 422.445C702.58 423.692 702.415 424.938 702.085 426.185C701.755 427.395 701.113 428.697 700.16 430.09C699.243 431.447 697.868 432.968 696.035 434.655L684.595 445.215L682.78 441.365H703.625V450H673.65ZM723.79 450.77C720.49 450.77 717.556 449.982 714.99 448.405C712.46 446.828 710.461 444.555 708.995 441.585C707.528 438.615 706.795 435.003 706.795 430.75C706.795 426.497 707.528 422.885 708.995 419.915C710.461 416.945 712.46 414.672 714.99 413.095C717.556 411.518 720.49 410.73 723.79 410.73C727.053 410.73 729.95 411.518 732.48 413.095C735.046 414.672 737.063 416.945 738.53 419.915C739.996 422.885 740.73 426.497 740.73 430.75C740.73 435.003 739.996 438.615 738.53 441.585C737.063 444.555 735.046 446.828 732.48 448.405C729.95 449.982 727.053 450.77 723.79 450.77ZM723.79 441.86C724.963 441.86 725.99 441.493 726.87 440.76C727.786 440.027 728.501 438.853 729.015 437.24C729.528 435.59 729.785 433.427 729.785 430.75C729.785 428.037 729.528 425.873 729.015 424.26C728.501 422.647 727.786 421.473 726.87 420.74C725.99 420.007 724.963 419.64 723.79 419.64C722.616 419.64 721.571 420.007 720.655 420.74C719.775 421.473 719.06 422.647 718.51 424.26C717.996 425.873 717.74 428.037 717.74 430.75C717.74 433.427 717.996 435.59 718.51 437.24C719.06 438.853 719.775 440.027 720.655 440.76C721.571 441.493 722.616 441.86 723.79 441.86ZM749.68 450V415.405L754.355 419.915H742.53V411.5H760.57V450H749.68ZM766.14 450V443.18L780.55 429.705C781.577 428.752 782.329 427.908 782.805 427.175C783.319 426.442 783.649 425.782 783.795 425.195C783.979 424.572 784.07 424.003 784.07 423.49C784.07 422.243 783.649 421.272 782.805 420.575C781.999 419.878 780.77 419.53 779.12 419.53C777.727 419.53 776.425 419.842 775.215 420.465C774.005 421.088 773.015 422.023 772.245 423.27L764.16 418.76C765.59 416.34 767.662 414.397 770.375 412.93C773.089 411.463 776.334 410.73 780.11 410.73C783.08 410.73 785.684 411.207 787.92 412.16C790.157 413.113 791.899 414.47 793.145 416.23C794.429 417.99 795.07 420.062 795.07 422.445C795.07 423.692 794.905 424.938 794.575 426.185C794.245 427.395 793.604 428.697 792.65 430.09C791.734 431.447 790.359 432.968 788.525 434.655L777.085 445.215L775.27 441.365H796.115V450H766.14Z" fill="white"/>
<path d="M957.65 154V147.18L972.06 133.705C973.087 132.752 973.838 131.908 974.315 131.175C974.828 130.442 975.158 129.782 975.305 129.195C975.488 128.572 975.58 128.003 975.58 127.49C975.58 126.243 975.158 125.272 974.315 124.575C973.508 123.878 972.28 123.53 970.63 123.53C969.237 123.53 967.935 123.842 966.725 124.465C965.515 125.088 964.525 126.023 963.755 127.27L955.67 122.76C957.1 120.34 959.172 118.397 961.885 116.93C964.598 115.463 967.843 114.73 971.62 114.73C974.59 114.73 977.193 115.207 979.43 116.16C981.667 117.113 983.408 118.47 984.655 120.23C985.938 121.99 986.58 124.062 986.58 126.445C986.58 127.692 986.415 128.938 986.085 130.185C985.755 131.395 985.113 132.697 984.16 134.09C983.243 135.447 981.868 136.968 980.035 138.655L968.595 149.215L966.78 145.365H987.625V154H957.65ZM1007.79 154.77C1004.49 154.77 1001.56 153.982 998.99 152.405C996.46 150.828 994.461 148.555 992.995 145.585C991.528 142.615 990.795 139.003 990.795 134.75C990.795 130.497 991.528 126.885 992.995 123.915C994.461 120.945 996.46 118.672 998.99 117.095C1001.56 115.518 1004.49 114.73 1007.79 114.73C1011.05 114.73 1013.95 115.518 1016.48 117.095C1019.05 118.672 1021.06 120.945 1022.53 123.915C1024 126.885 1024.73 130.497 1024.73 134.75C1024.73 139.003 1024 142.615 1022.53 145.585C1021.06 148.555 1019.05 150.828 1016.48 152.405C1013.95 153.982 1011.05 154.77 1007.79 154.77ZM1007.79 145.86C1008.96 145.86 1009.99 145.493 1010.87 144.76C1011.79 144.027 1012.5 142.853 1013.01 141.24C1013.53 139.59 1013.78 137.427 1013.78 134.75C1013.78 132.037 1013.53 129.873 1013.01 128.26C1012.5 126.647 1011.79 125.473 1010.87 124.74C1009.99 124.007 1008.96 123.64 1007.79 123.64C1006.62 123.64 1005.57 124.007 1004.65 124.74C1003.77 125.473 1003.06 126.647 1002.51 128.26C1002 129.873 1001.74 132.037 1001.74 134.75C1001.74 137.427 1002 139.59 1002.51 141.24C1003.06 142.853 1003.77 144.027 1004.65 144.76C1005.57 145.493 1006.62 145.86 1007.79 145.86ZM1033.68 154V119.405L1038.36 123.915H1026.53V115.5H1044.57V154H1033.68ZM1056.19 154L1071.21 119.515L1074.12 124.135H1054.6L1059.05 119.13V130.075H1049.76V115.5H1081.66V122.32L1068.07 154H1056.19Z" fill="white"/>
</svg>
