<svg width="40" height="43" viewBox="0 0 40 43" fill="none" xmlns="http://www.w3.org/2000/svg">
<g clip-path="url(#clip0_30_2)">
<path d="M21.2976 41.7571C21.4501 42.1521 21.2501 42.5977 20.858 42.7356L20.2232 42.9592C19.8311 43.0973 19.4062 42.8719 19.2896 42.4641L19.2503 42.3265C19.1083 41.8301 18.6975 41.4689 18.2101 41.3983C17.7227 41.4691 17.312 41.8301 17.17 42.3265L17.1307 42.4641C17.0142 42.8718 16.5891 43.0971 16.1971 42.9592L15.5623 42.7356C15.1704 42.5975 14.9702 42.152 15.1227 41.7571L15.2675 41.382C15.4603 40.8829 15.3375 40.3123 14.9543 39.9463C14.8962 39.8908 14.8393 39.8338 14.7837 39.7758C14.3703 39.3434 13.722 39.2573 13.2169 39.5709C12.8623 39.7909 12.4004 39.663 12.2022 39.2899L11.8813 38.6856C11.6832 38.3124 11.8291 37.8453 12.2018 37.6596L12.5729 37.4746C13.0263 37.2485 13.3124 36.7702 13.2908 36.2539C13.2877 36.1774 13.2859 36.1005 13.2859 36.023C13.2859 35.9824 13.2864 35.9417 13.2872 35.9012C13.3001 35.3139 12.9177 34.7938 12.3675 34.6294C11.9696 34.5105 11.7491 34.0751 11.8832 33.6731L12.1006 33.022C12.2347 32.62 12.6692 32.4143 13.0548 32.5702L13.3084 32.6728C13.7947 32.8694 14.3489 32.7421 14.7071 32.3518C14.7716 32.2814 14.8378 32.2129 14.906 32.1462C15.3026 31.7578 15.4216 31.1582 15.1913 30.6478L15.1167 30.4824C14.9428 30.0969 15.1181 29.6405 15.5018 29.48L16.1235 29.2201C16.5072 29.0596 16.9439 29.2603 17.0827 29.6605L17.1279 29.7908C17.2955 30.2746 17.7209 30.6048 18.2098 30.6547C18.6988 30.6048 19.1242 30.2746 19.2918 29.7908L19.337 29.6605C19.4756 29.2601 19.9123 29.0596 20.2962 29.2201L20.9178 29.48C21.3015 29.6405 21.477 30.0969 21.3029 30.4824L21.2283 30.6478C20.9981 31.158 21.1172 31.7578 21.5137 32.1462C21.5818 32.2129 21.6481 32.2814 21.7126 32.3518C22.0708 32.7421 22.6248 32.8694 23.1112 32.6728L23.3649 32.5702C23.7505 32.4143 24.1848 32.62 24.3191 33.022L24.5364 33.6731C24.6705 34.0751 24.4502 34.5105 24.0522 34.6294C23.502 34.7938 23.1197 35.3139 23.1325 35.9012C23.1334 35.9417 23.1337 35.9822 23.1337 36.023C23.1337 36.1003 23.1321 36.1772 23.1288 36.2539C23.1073 36.7702 23.3934 37.2485 23.8468 37.4746L24.2179 37.6596C24.5906 37.8454 24.7366 38.3124 24.5383 38.6856L24.2174 39.2899C24.0193 39.663 23.5572 39.7909 23.2028 39.5709C22.6976 39.2573 22.0494 39.3434 21.6359 39.7758C21.5804 39.8338 21.5234 39.8908 21.4654 39.9463C21.0823 40.3123 20.9594 40.8829 21.1522 41.382L21.297 41.7571H21.2976ZM21.712 36.0232C21.712 33.9761 20.1676 32.2916 18.2103 32.1298C16.253 32.2916 14.7086 33.9759 14.7086 36.0232C14.7086 38.0705 16.253 39.7546 18.2103 39.9164C20.1675 39.7546 21.712 38.0703 21.712 36.0232Z" fill="#97D4E6"/>
<path d="M15.4094 12.592C15.5619 12.987 15.3619 13.4326 14.9698 13.5705L14.335 13.7941C13.943 13.9322 13.518 13.7068 13.4014 13.299L13.3621 13.1614C13.2201 12.665 12.8094 12.3038 12.322 12.2332C11.8346 12.304 11.4238 12.665 11.2818 13.1614L11.2425 13.299C11.126 13.7067 10.701 13.932 10.3089 13.7941L9.67407 13.5705C9.2822 13.4324 9.08202 12.9869 9.23452 12.592L9.3793 12.2169C9.57209 11.7178 9.44934 11.1472 9.06612 10.7812C9.00805 10.7257 8.95108 10.6687 8.89552 10.6106C8.48209 10.1783 7.83385 10.0922 7.32867 10.4058C6.97409 10.6258 6.51219 10.4979 6.31405 10.1248L5.99316 9.52047C5.79502 9.14734 5.94091 8.68016 6.31358 8.49449L6.68468 8.30946C7.13808 8.08345 7.4242 7.60514 7.40263 7.08876C7.39949 7.0123 7.39776 6.93535 7.39776 6.85792C7.39776 6.81727 7.39823 6.77662 7.39902 6.73613C7.41192 6.14877 7.02949 5.62868 6.4793 5.4643C6.08145 5.34541 5.86096 4.91001 5.99505 4.50801L6.21238 3.85693C6.34647 3.45493 6.78099 3.24925 7.16657 3.40508L7.42026 3.50768C7.90656 3.70432 8.46069 3.57704 8.81888 3.18666C8.88341 3.11632 8.94966 3.04776 9.01781 2.98114C9.4144 2.59268 9.53338 1.99307 9.30313 1.48266L9.22854 1.31731C9.05463 0.93176 9.22995 0.47539 9.61364 0.314879L10.2353 0.0549994C10.619 -0.105512 11.0557 0.0951643 11.1945 0.495393L11.2397 0.625739C11.4073 1.10953 11.8327 1.43975 12.3216 1.48959C12.8106 1.43975 13.236 1.10953 13.4036 0.625739L13.4488 0.495393C13.5874 0.0950031 14.0242 -0.105512 14.408 0.0549994L15.0296 0.314879C15.4133 0.47539 15.5888 0.93176 15.4148 1.31731L15.3402 1.48266C15.1099 1.99291 15.229 2.59268 15.6255 2.98114C15.6936 3.04776 15.7599 3.11632 15.8244 3.18666C16.1826 3.57704 16.7366 3.70432 17.223 3.50768L17.4767 3.40508C17.8623 3.24925 18.2967 3.45493 18.4309 3.85693L18.6482 4.50801C18.7823 4.91001 18.562 5.34541 18.164 5.4643C17.6138 5.62868 17.2315 6.14877 17.2443 6.73613C17.2452 6.77662 17.2455 6.81711 17.2455 6.85792C17.2455 6.93519 17.244 7.01214 17.2407 7.08876C17.2191 7.60514 17.5052 8.08345 17.9586 8.30946L18.3297 8.49449C18.7024 8.68032 18.8484 9.14734 18.6501 9.52047L18.3292 10.1248C18.1311 10.4979 17.669 10.6258 17.3146 10.4058C16.8094 10.0922 16.1612 10.1783 15.7478 10.6106C15.6922 10.6687 15.6352 10.7257 15.5772 10.7812C15.1941 11.1472 15.0712 11.7178 15.264 12.2169L15.4088 12.592H15.4094ZM15.8238 6.85808C15.8238 4.81096 14.2794 3.12648 12.3221 2.96468C10.3648 3.12648 8.82045 4.8108 8.82045 6.85808C8.82045 8.90536 10.3648 10.5895 12.3221 10.7513C14.2793 10.5895 15.8238 8.9052 15.8238 6.85808Z" fill="#97D4E6"/>
<path d="M12.2218 30.7412C12.4179 31.2491 12.1605 31.822 11.6566 31.9996L10.8403 32.2871C10.3362 32.4645 9.7898 32.1748 9.63982 31.6505L9.5893 31.4735C9.4069 30.8352 8.87858 30.3709 8.2519 30.2799C7.62522 30.3709 7.09706 30.8352 6.9145 31.4735L6.86399 31.6505C6.71416 32.1748 6.16759 32.4645 5.66351 32.2871L4.84719 31.9996C4.34326 31.8221 4.08579 31.2491 4.28204 30.7412L4.46822 30.259C4.71609 29.6171 4.55824 28.8834 4.06565 28.4127C3.99089 28.3412 3.91787 28.2682 3.84626 28.1935C3.31464 27.6376 2.48116 27.5267 1.83151 27.93C1.37558 28.213 0.781638 28.0484 0.526842 27.5687L0.114197 26.7916C-0.140598 26.3119 0.0469966 25.7111 0.52637 25.4722L1.00354 25.2344C1.58663 24.9439 1.95458 24.3288 1.92672 23.6648C1.92263 23.5664 1.92058 23.4675 1.92058 23.368C1.92058 23.3157 1.92121 23.2634 1.92231 23.2115C1.93884 22.4562 1.44719 21.7875 0.739775 21.5761C0.228139 21.4231 -0.0552991 20.8634 0.117187 20.3465L0.396533 19.5093C0.56902 18.9924 1.12771 18.7278 1.62345 18.9282L1.9497 19.06C2.57512 19.3128 3.28757 19.1492 3.74806 18.6472C3.831 18.5567 3.91629 18.4686 4.0038 18.3829C4.5137 17.8835 4.66683 17.1122 4.3708 16.4562L4.2748 16.2435C4.05117 15.7478 4.27653 15.1609 4.77007 14.9546L5.56939 14.6205C6.06293 14.4142 6.62446 14.6721 6.80277 15.1869L6.86084 15.3544C7.07645 15.9766 7.62334 16.4011 8.25206 16.4652C8.88094 16.4011 9.42783 15.9766 9.64328 15.3544L9.70136 15.1869C9.87967 14.6721 10.4413 14.4144 10.9347 14.6205L11.7341 14.9546C12.2276 15.1609 12.453 15.7478 12.2293 16.2435L12.1333 16.4562C11.8373 17.1122 11.9904 17.8835 12.5003 18.3829C12.5878 18.4686 12.6731 18.5568 12.7561 18.6472C13.2166 19.1492 13.929 19.3128 14.5544 19.06L14.8807 18.9282C15.3764 18.7278 15.9351 18.9924 16.1076 19.5093L16.3869 20.3465C16.5594 20.8634 16.276 21.4231 15.7643 21.5761C15.0568 21.7874 14.5653 22.4562 14.5818 23.2115C14.5829 23.2636 14.5835 23.3157 14.5835 23.368C14.5835 23.4673 14.5815 23.5664 14.5774 23.6648C14.5497 24.3288 14.9177 24.9439 15.5006 25.2344L15.9778 25.4722C16.457 25.7111 16.6447 26.3117 16.3899 26.7916L15.9773 27.5687C15.7225 28.0484 15.1284 28.213 14.6726 27.93C14.023 27.5267 13.1895 27.6374 12.6579 28.1935C12.5864 28.2682 12.5132 28.3412 12.4385 28.4127C11.9459 28.8834 11.7879 29.6171 12.0359 30.259L12.2221 30.7412H12.2218ZM12.7546 23.368C12.7546 20.7356 10.7689 18.5696 8.2519 18.3615C5.73511 18.5696 3.74916 20.7354 3.74916 23.368C3.74916 26.0005 5.73511 28.166 8.2519 28.3741C10.7687 28.166 12.7546 26.0003 12.7546 23.368Z" fill="#97D4E6"/>
<path d="M34.1478 30.0954C34.416 30.7895 34.0642 31.5727 33.3754 31.8154L32.2597 32.2083C31.5709 32.451 30.824 32.0549 30.6191 31.3384L30.55 31.0965C30.3005 30.2241 29.5786 29.5895 28.7222 29.4651C27.8656 29.5895 27.1437 30.224 26.8944 31.0965L26.8253 31.3384C26.6206 32.0548 25.8735 32.451 25.1846 32.2083L24.069 31.8154C23.3801 31.5727 23.0284 30.7897 23.2966 30.0954L23.5511 29.4363C23.8899 28.559 23.6741 27.5563 23.0007 26.9129C22.8986 26.8153 22.7986 26.7155 22.7009 26.6132C21.9743 25.8534 20.8352 25.7021 19.9473 26.2531C19.3242 26.6398 18.5123 26.4151 18.164 25.7593L17.6 24.6972C17.2517 24.0415 17.5082 23.2205 18.1632 22.894L18.8154 22.569C19.6122 22.1718 20.1152 21.3312 20.0772 20.4238C20.0716 20.2892 20.0687 20.154 20.0687 20.0182C20.0687 19.9468 20.0695 19.8754 20.0711 19.8043C20.0938 18.772 19.4218 17.8582 18.4548 17.5693C17.7556 17.3603 17.3681 16.5951 17.6039 15.8888L17.9857 14.7446C18.2214 14.0382 18.9849 13.6767 19.6626 13.9504L20.1084 14.1306C20.9631 14.4762 21.9368 14.2526 22.5663 13.5663C22.6797 13.4428 22.7963 13.3222 22.9159 13.2051C23.6127 12.5226 23.8221 11.4685 23.4174 10.5718L23.2863 10.2812C22.9806 9.60355 23.2889 8.80149 23.9632 8.5195L25.0556 8.06297C25.73 7.78099 26.4975 8.13347 26.7413 8.83697L26.8206 9.06588C27.1152 9.91619 27.8627 10.4966 28.722 10.584C29.5815 10.4964 30.3289 9.91619 30.6235 9.06588L30.7028 8.83697C30.9466 8.13347 31.7141 7.78099 32.3885 8.06297L33.4808 8.5195C34.1553 8.80149 34.4635 9.60355 34.1577 10.2812L34.0266 10.5718C33.622 11.4685 33.8313 12.5226 34.5282 13.2051C34.6478 13.3222 34.7644 13.4428 34.8777 13.5663C35.5071 14.2524 36.4808 14.476 37.3356 14.1306L37.7815 13.9504C38.4592 13.6765 39.2226 14.038 39.4584 14.7446L39.8402 15.8888C40.0759 16.5952 39.6884 17.3603 38.9892 17.5693C38.0223 17.8582 37.3503 18.7722 37.3729 19.8043C37.3745 19.8754 37.3753 19.9468 37.3753 20.0182C37.3753 20.154 37.3725 20.2894 37.3668 20.4238C37.3289 21.3312 37.8319 22.1718 38.6287 22.569L39.2808 22.894C39.9358 23.2205 40.1924 24.0415 39.8441 24.6972L39.2801 25.7593C38.9318 26.4151 38.1199 26.64 37.4968 26.2531C36.6089 25.7019 35.4698 25.8532 34.7432 26.6132C34.6454 26.7153 34.5455 26.8153 34.4434 26.9129C33.7701 27.5563 33.5542 28.559 33.893 29.4363L34.1475 30.0954H34.1478ZM34.876 20.0182C34.876 16.4203 32.1618 13.4602 28.722 13.1758C25.2822 13.4602 22.5681 16.4203 22.5681 20.0182C22.5681 23.6161 25.2822 26.5759 28.722 26.8603C32.1617 26.5759 34.876 23.6161 34.876 20.0182Z" fill="#97D4E6"/>
</g>
<defs>
<clipPath id="clip0_30_2">
<rect width="40" height="43" fill="white" transform="matrix(1 0 0 -1 0 43)"/>
</clipPath>
</defs>
</svg>
