<svg width="41" height="42" viewBox="0 0 41 42" fill="none" xmlns="http://www.w3.org/2000/svg">
<g clip-path="url(#clip0_26_225)">
<path d="M5.76656 24.6572C7.15413 24.2433 8.11839 22.9343 8.08591 21.4559C8.08368 21.3539 8.08249 21.252 8.08249 21.1495C8.08249 20.9548 8.08659 20.7611 8.09462 20.5686C8.14899 19.2689 7.42734 18.0648 6.28391 17.496L5.34804 17.0304C4.84077 16.778 4.50055 16.3194 4.37284 15.803C5.33213 16.1843 6.37452 16.394 7.46393 16.394C8.14335 16.394 8.8156 16.3125 9.4704 16.1514L11.9696 18.7083C11.7738 19.4892 11.6692 20.3071 11.6692 21.1495C11.6692 26.3026 15.564 30.5424 20.5 30.9496C21.4752 30.8691 22.4095 30.6386 23.2816 30.2812L24.8426 31.8782C24.6538 32.6172 24.5583 33.3784 24.5583 34.1498C24.5583 35.662 24.9264 37.0877 25.5748 38.3389C24.6562 38.61 23.6699 38.1074 23.3425 37.1641L23.2286 36.8362C22.8058 35.6182 21.7332 34.787 20.5 34.6616C19.2668 34.787 18.1942 35.6182 17.7714 36.8362L17.6575 37.1641C17.3077 38.1718 16.2063 38.6766 15.2385 38.2727L13.6709 37.6187C12.703 37.2148 12.2608 36.066 12.6996 35.0956L12.8879 34.6795C13.4685 33.3951 13.1682 31.8854 12.1681 30.9078C11.9964 30.74 11.8291 30.5674 11.6665 30.3904C10.7633 29.4075 9.36594 29.0874 8.13942 29.5823L7.49966 29.8403C6.52737 30.2326 5.43164 29.7147 5.09347 28.703L4.54552 27.0642C4.20717 26.0525 4.76315 24.9565 5.76656 24.6572Z" fill="#97D4E6"/>
<path d="M35.6519 17.0304L34.7161 17.496C33.5726 18.0648 32.851 19.269 32.9053 20.5686C32.9134 20.7612 32.9175 20.9548 32.9175 21.1495C32.9175 21.2518 32.9165 21.3539 32.9141 21.4559C32.8816 22.9343 33.8458 24.2434 35.2334 24.6572C35.7955 24.8248 36.217 25.2425 36.4197 25.7553C35.4574 25.3829 34.4152 25.1786 33.3271 25.1786C32.6421 25.1786 31.9637 25.2594 31.3025 25.4197L29.1222 23.189C29.2584 22.5308 29.3308 21.8486 29.3308 21.1495C29.3308 15.9965 25.436 11.7571 20.5 11.3497C19.6547 11.4195 18.8399 11.6017 18.07 11.8816L15.8137 9.57326C15.9534 8.94024 16.024 8.29131 16.024 7.63625C16.024 6.25548 15.7096 4.94851 15.1509 3.78585L15.4234 3.69C16.412 3.34245 17.4838 3.90987 17.7776 4.93609L17.8768 5.28242C18.2346 6.53202 19.2705 7.44087 20.4998 7.61894C21.7289 7.44087 22.7649 6.53202 23.1228 5.28242L23.2219 4.93609C23.5158 3.90987 24.5878 3.34262 25.5761 3.69L27.1771 4.25288C28.1656 4.60043 28.6703 5.72199 28.2855 6.7162L27.9201 7.66022C27.4339 8.91663 27.7437 10.3529 28.7098 11.2743C28.8563 11.4141 28.9998 11.5571 29.14 11.7035C30.1827 12.7919 31.8173 13.0086 33.0915 12.2192C33.9855 11.6652 35.1507 11.9873 35.6504 12.9265L36.4598 14.4478C36.9595 15.3869 36.5914 16.5629 35.6516 17.0304H35.6519Z" fill="#97D4E6"/>
<path d="M0.0704384 6.58711L4.52242 11.1419L9.44748 9.66561L10.8409 4.67757L6.3516 0.0844838C6.71457 0.0290358 7.08591 0 7.46409 0C11.5863 0 14.9282 3.41888 14.9282 7.63643C14.9282 8.42792 14.8104 9.19124 14.5921 9.90909L30.9796 26.675C31.7196 26.4319 32.5084 26.3002 33.3273 26.3002C37.5648 26.3002 41 29.8146 41 34.15C41 38.4854 37.5648 42 33.3272 42C29.0896 42 25.6543 38.4854 25.6543 34.15C25.6543 33.2427 25.8053 32.3715 26.0821 31.5607L9.79112 14.8936C9.0587 15.1394 8.2767 15.2727 7.46392 15.2727C3.34172 15.2727 -0.000171661 11.8538 -0.000171661 7.63625C-0.000171661 7.28013 0.0242767 6.92995 0.0702667 6.58694L0.0704384 6.58711ZM32.3655 38.7057L36.5478 37.4813L37.6025 33.1633L34.4749 30.0698L30.2925 31.2942L29.2378 35.6121L32.3655 38.7057Z" fill="#97D4E6"/>
</g>
<defs>
<clipPath id="clip0_26_225">
<rect width="41" height="42" fill="white" transform="matrix(-1 0 0 1 41 0)"/>
</clipPath>
</defs>
</svg>
