<svg width="45" height="43" viewBox="0 0 45 43" fill="none" xmlns="http://www.w3.org/2000/svg">
<g clip-path="url(#clip0_30_9)">
<path d="M30.6694 14.2596V24.4361C31.2922 23.6343 31.7567 22.7327 32.0473 21.7704V16.9252C31.7567 15.9629 31.2922 15.0613 30.6694 14.2596Z" fill="#97D4E6"/>
<path d="M30.6695 41.61H1.37788V1.38996H30.6695V8.0678C31.146 8.34672 31.6064 8.65796 32.0473 8.99956V0H0V43H32.0475V34.5927C31.6363 34.1779 30.9697 33.6399 30.6696 33.3372V41.6099L30.6695 41.61Z" fill="#97D4E6"/>
<path d="M26.3802 3.74399H5.53381V5.35823H26.3802V3.74399Z" fill="#97D4E6"/>
<path d="M18.0043 7.91406H3.88916V9.2592H16.0325C16.6521 8.74672 17.3118 8.29744 18.0043 7.91406Z" fill="#97D4E6"/>
<path d="M13.3906 12.2184H3.88916V13.5635H12.6255C12.8532 13.1012 13.1082 12.6519 13.3904 12.2184H13.3906Z" fill="#97D4E6"/>
<path d="M21.4624 11.5459C20.9668 11.7225 20.4894 11.9477 20.0357 12.2186C19.4476 12.5696 18.8991 12.9984 18.4036 13.4982C18.3822 13.5198 18.3604 13.5418 18.3395 13.5637C18.1822 13.7255 18.0328 13.8928 17.8906 14.065V14.2362H28.7805V12.4813C28.2072 12.0907 27.5901 11.7768 26.9421 11.5459H21.4624Z" fill="#97D4E6"/>
<path d="M16.4899 16.5229C16.3334 16.9583 16.2134 17.4081 16.1316 17.8681C16.0919 18.09 16.0613 18.3141 16.0396 18.5407H28.7803V15.8504H16.7658C16.6635 16.0701 16.5717 16.2947 16.4899 16.5231V16.5229Z" fill="#97D4E6"/>
<path d="M16.1318 20.8274C16.2136 21.2874 16.3336 21.7372 16.4901 22.1726C16.5719 22.4008 16.6639 22.6254 16.7661 22.8452H28.7806V20.1549H16.0398C16.0616 20.3814 16.0922 20.6056 16.1318 20.8276V20.8274Z" fill="#97D4E6"/>
<path d="M18.3396 25.132C18.3605 25.1539 18.3822 25.1759 18.4036 25.1975C18.8993 25.6975 19.4477 26.126 20.0357 26.4771C20.4896 26.748 20.967 26.973 21.4624 27.1498H26.9421C27.5901 26.9189 28.207 26.6049 28.7806 26.2144V24.4595H17.7533C17.9351 24.6927 18.1307 24.9168 18.3396 25.1321V25.132Z" fill="#97D4E6"/>
<path d="M3.88916 17.8681H11.3721C11.4224 17.4138 11.4962 16.965 11.593 16.5229H3.88916V17.8681Z" fill="#97D4E6"/>
<path d="M3.88916 20.8274V22.1726H11.593C11.4962 21.7304 11.4224 21.2817 11.3721 20.8274H3.88916Z" fill="#97D4E6"/>
<path d="M3.88916 25.132V26.4771H13.3906C13.1084 26.0435 12.8532 25.5943 12.6257 25.132H3.88916Z" fill="#97D4E6"/>
<path d="M3.88916 29.4365V30.7816H18.0043C17.3118 30.3982 16.6521 29.9489 16.0325 29.4365H3.88916Z" fill="#97D4E6"/>
<path d="M28.0247 33.7408H3.88916V35.086H28.0247V33.7408Z" fill="#97D4E6"/>
<path d="M28.0247 38.0453H3.88916V39.3905H28.0247V38.0453Z" fill="#97D4E6"/>
<path d="M24.2023 7.53281C17.7338 7.53281 12.4901 12.8225 12.4901 19.3476C12.4901 25.8728 17.7338 31.1625 24.2023 31.1625C30.6707 31.1625 35.9144 25.8728 35.9144 19.3476C35.9144 12.8225 30.6707 7.53281 24.2023 7.53281ZM30.8497 26.0533C29.074 27.8445 26.7134 28.8309 24.2023 28.8309C21.6911 28.8309 19.3305 27.8445 17.5548 26.0533C15.7792 24.2621 14.8014 21.8808 14.8014 19.3476C14.8014 16.8145 15.7792 14.4331 17.5548 12.6419C19.3305 10.8507 21.6911 9.86435 24.2023 9.86435C26.7134 9.86435 29.074 10.8507 30.8497 12.6419C32.6253 14.4331 33.6031 16.8145 33.6031 19.3476C33.6031 21.8808 32.6253 24.2621 30.8497 26.0533Z" fill="#97D4E6"/>
<path d="M31.6261 32.4841L39.8474 40.0903C40.5009 40.6949 41.5106 40.6729 42.1377 40.0404L44.5149 37.6425C45.1419 37.01 45.1638 35.9913 44.5643 35.332L37.0242 27.0387C36.3404 26.2866 35.1731 26.2612 34.4576 26.9828L31.5704 29.8954C30.855 30.617 30.8802 31.7946 31.6258 32.4844L31.6261 32.4841Z" fill="#97D4E6"/>
</g>
<defs>
<clipPath id="clip0_30_9">
<rect width="45" height="43" fill="white"/>
</clipPath>
</defs>
</svg>
