<svg width="38" height="43" viewBox="0 0 38 43" fill="none" xmlns="http://www.w3.org/2000/svg">
<g clip-path="url(#clip0_26_211)">
<path d="M23.0923 35.9555C23.0626 35.9569 23.0328 35.9576 23.0031 35.9575H18.7533C18.3585 35.9575 18.0188 35.6504 18.0125 35.2577C18.0064 34.8597 18.3287 34.5354 18.7275 34.5354C18.7786 34.5354 21.1004 34.5354 22.4109 34.5354C22.8689 34.5354 23.2561 34.1934 23.3034 33.7403C23.8105 28.8749 28.6323 22.6709 28.1301 18.1296C27.5255 13.019 24.0084 9.96453 18.7197 9.95447C18.3256 9.95376 17.9861 9.64921 17.9784 9.25738C17.9706 8.85838 18.2937 8.53228 18.6933 8.53246C24.6536 8.48092 28.8945 12.1357 29.5506 17.9637C30.2524 22.8291 25.1645 29.3249 24.6713 34.4275C24.5919 35.2507 23.9226 35.9153 23.0921 35.9557L23.0923 35.9555Z" fill="#97D4E6"/>
<path d="M7.82769 19.2091L7.13459 18.8741C6.43861 18.5375 6.1661 17.6912 6.53613 17.0153L7.1355 15.9205C7.50552 15.2446 8.36837 15.0128 9.0304 15.4114C9.97397 15.9796 11.1845 15.8235 11.9565 15.0402C12.0603 14.9348 12.1665 14.8319 12.275 14.7314C12.9905 14.0682 13.2199 13.0346 12.8598 12.1303L12.5892 11.4508C12.3043 10.7352 12.6781 9.92807 13.41 9.67793L14.5956 9.27282C15.3275 9.02268 16.1214 9.43102 16.339 10.1696L16.4125 10.4188C16.7133 11.4397 17.6609 12.1449 18.7305 12.1233C18.7814 12.1222 18.8323 12.1217 18.8835 12.1213C19.6154 12.1177 20.2413 12.6803 20.2595 13.408C20.2783 14.1526 19.6768 14.7623 18.932 14.7623C15.008 14.7623 11.8156 17.9367 11.8156 21.8386C11.8156 25.7405 14.9905 28.8975 18.8999 28.9149C19.6139 28.9181 20.2243 29.4615 20.2584 30.1706C20.2949 30.9293 19.6871 31.556 18.932 31.556C18.8419 31.556 18.7522 31.5548 18.6626 31.5524C17.6237 31.5242 16.6821 32.1549 16.3343 33.1287L16.2499 33.3646C15.991 34.0899 15.1753 34.4532 14.4587 34.1625L13.2979 33.6918C12.5811 33.4013 12.2537 32.5744 12.5786 31.8758L12.718 31.5763C13.148 30.6519 12.9257 29.5655 12.1851 28.8617C12.058 28.7409 11.9341 28.6168 11.8136 28.4893C11.1447 27.782 10.1101 27.5516 9.20178 27.9077L8.7281 28.0934C8.0081 28.3757 7.19672 28.003 6.94624 27.2749L6.54046 26.0955C6.28998 25.3673 6.70173 24.5786 7.44466 24.3632C8.47221 24.0653 9.18625 23.1232 9.16223 22.0591C9.16061 21.9858 9.15971 21.9122 9.15971 21.8386C9.15971 21.6985 9.16278 21.5592 9.16873 21.4204C9.20901 20.485 8.67465 19.6184 7.82787 19.209L7.82769 19.2091Z" fill="#97D4E6"/>
<path d="M16.4105 17.6C16.2951 17.3104 16.4464 16.9834 16.7427 16.8823L17.2227 16.7183C17.5191 16.617 17.8405 16.7824 17.9287 17.0814L17.9585 17.1823C18.0657 17.5465 18.3763 17.8114 18.7449 17.8632C19.1135 17.8114 19.4241 17.5465 19.5314 17.1823L19.5612 17.0814C19.6493 16.7824 19.9707 16.617 20.2671 16.7183L20.7471 16.8823C21.0434 16.9835 21.1948 17.3104 21.0794 17.6L20.9699 17.8751C20.8242 18.2412 20.917 18.6598 21.2067 18.9283C21.2506 18.969 21.2935 19.0107 21.3356 19.0533C21.6482 19.3704 22.1383 19.4336 22.5203 19.2036C22.7883 19.0421 23.1377 19.136 23.2874 19.4097L23.5301 19.8531C23.68 20.1267 23.5697 20.4693 23.2878 20.6056L23.0071 20.7412C22.6644 20.907 22.4479 21.2578 22.4643 21.6366C22.4666 21.6928 22.4679 21.7491 22.4679 21.8059C22.4679 21.8357 22.4675 21.8655 22.4668 21.8951C22.4571 22.3259 22.7462 22.7073 23.1623 22.828C23.4631 22.9153 23.6298 23.2345 23.5283 23.5294L23.364 24.0069C23.2625 24.3017 22.934 24.4526 22.6425 24.3384L22.4508 24.2631C22.0831 24.1189 21.6641 24.2123 21.3932 24.4985C21.3445 24.5501 21.2943 24.6004 21.2428 24.6494C20.943 24.9342 20.8529 25.3741 21.027 25.7485L21.0833 25.8697C21.2148 26.1526 21.0823 26.4873 20.7921 26.6051L20.322 26.7956C20.0318 26.9132 19.7017 26.7661 19.5967 26.4725L19.5626 26.377C19.4358 26.0222 19.1142 25.7799 18.7446 25.7433C18.3749 25.7799 18.0533 26.022 17.9265 26.377L17.8924 26.4725C17.7874 26.7661 17.4573 26.9132 17.1671 26.7956L16.697 26.6051C16.4068 26.4875 16.2743 26.1526 16.4058 25.8697L16.4621 25.7485C16.6362 25.3743 16.5461 24.9344 16.2463 24.6494C16.1948 24.6005 16.1446 24.5503 16.0959 24.4985C15.825 24.2121 15.4062 24.1189 15.0383 24.2631L14.8466 24.3384C14.5551 24.4527 14.2266 24.3017 14.1251 24.0069L13.9608 23.5294C13.8593 23.2345 14.026 22.9153 14.3268 22.828C14.7429 22.7073 15.032 22.3259 15.0223 21.8951C15.0216 21.8655 15.0212 21.8357 15.0212 21.8059C15.0212 21.7491 15.0225 21.6928 15.0248 21.6366C15.0411 21.2578 14.8247 20.907 14.482 20.7412L14.2013 20.6056C13.9194 20.4693 13.8091 20.1267 13.959 19.8531L14.2017 19.4097C14.3516 19.136 14.7008 19.0421 14.9688 19.2036C15.3508 19.4336 15.8409 19.3704 16.1535 19.0533C16.1956 19.0107 16.2385 18.9689 16.2824 18.9283C16.5721 18.6598 16.6649 18.2412 16.5192 17.8751L16.4097 17.6H16.4105ZM16.0971 21.8059C16.0971 23.3074 17.2648 24.5429 18.7447 24.6616C20.2246 24.5429 21.3923 23.3074 21.3923 21.8059C21.3923 20.3043 20.2246 19.0689 18.7447 18.9502C17.2648 19.0689 16.0971 20.3043 16.0971 21.8059Z" fill="#97D4E6"/>
<path d="M32.9605 17.4709H37.2509C37.6646 17.4709 38 17.8043 38 18.2157C38 18.6271 37.6646 18.9606 37.2509 18.9606H32.9605C32.5468 18.9606 32.2114 18.6271 32.2114 18.2157C32.2114 17.8043 32.5468 17.4709 32.9605 17.4709Z" fill="#97D4E6"/>
<path d="M16.6846 41.5101H20.975C21.3888 41.5101 21.7241 41.8436 21.7241 42.255C21.7241 42.6664 21.3888 42.9998 20.975 42.9998H16.6846C16.2709 42.9998 15.9356 42.6664 15.9356 42.255C15.9356 41.8436 16.2709 41.5101 16.6846 41.5101Z" fill="#97D4E6"/>
<path d="M14.0968 37.9889H23.9033C24.317 37.9889 24.6523 38.3224 24.6523 38.7338C24.6523 39.1452 24.317 39.4786 23.9033 39.4786H14.0968C13.6831 39.4786 13.3477 39.1452 13.3477 38.7338C13.3477 38.3224 13.6831 37.9889 14.0968 37.9889Z" fill="#97D4E6"/>
<path d="M18.8637 5.75594C18.45 5.75594 18.1146 5.42247 18.1146 5.01108V0.744856C18.1146 0.333461 18.45 0 18.8637 0C19.2774 0 19.6128 0.333461 19.6128 0.744856V5.01108C19.6128 5.42247 19.2774 5.75594 18.8637 5.75594Z" fill="#97D4E6"/>
<path d="M29.3856 8.90828C29.093 9.19918 28.6188 9.19918 28.3262 8.90828C28.0337 8.61737 28.0337 8.14582 28.3262 7.85492L31.3599 4.83833C31.6525 4.54742 32.1267 4.54742 32.4193 4.83833C32.7118 5.12923 32.7118 5.60078 32.4193 5.89168L29.3856 8.90828Z" fill="#97D4E6"/>
<path d="M9.53767 8.90828C9.24511 9.19918 8.77089 9.19918 8.47834 8.90828L5.44464 5.89168C5.15209 5.60078 5.15209 5.12923 5.44464 4.83833C5.7372 4.54742 6.21142 4.54742 6.50397 4.83833L9.53767 7.85492C9.83022 8.14582 9.83022 8.61737 9.53767 8.90828Z" fill="#97D4E6"/>
<path d="M0.749335 17.4709H5.03974C5.45347 17.4709 5.78882 17.8043 5.78882 18.2157C5.78882 18.6271 5.45347 18.9606 5.03974 18.9606H0.749335C0.335608 18.9606 0.000257492 18.6271 0.000257492 18.2157C0.000257492 17.8043 0.335608 17.4709 0.749335 17.4709Z" fill="#97D4E6"/>
</g>
<defs>
<clipPath id="clip0_26_211">
<rect width="38" height="43" fill="white" transform="matrix(-1 0 0 1 38 0)"/>
</clipPath>
</defs>
</svg>
