<svg width="21" height="21" viewBox="0 0 21 21" fill="none" xmlns="http://www.w3.org/2000/svg">
<g clip-path="url(#clip0_54_96)">
<path d="M18.8392 17.0813V10.3974C18.8392 9.93234 18.7444 9.47221 18.5603 9.04515C18.3763 8.61809 18.1071 8.23309 17.7691 7.91374L11.472 1.96263C11.1549 1.66279 10.735 1.49573 10.2986 1.49573C9.86212 1.49573 9.44223 1.66279 9.12508 1.96263L2.82808 7.91374C2.49006 8.23309 2.2208 8.61809 2.03678 9.04515C1.85277 9.47221 1.75789 9.93234 1.75793 10.3974V17.0813C1.75793 17.5343 1.9379 17.9687 2.25823 18.2891C2.57857 18.6094 3.01304 18.7894 3.46606 18.7894H17.1311C17.5841 18.7894 18.0186 18.6094 18.3389 18.2891C18.6592 17.9687 18.8392 17.5343 18.8392 17.0813Z" stroke="white" stroke-width="2" stroke-linecap="round" stroke-linejoin="round"/>
</g>
<defs>
<clipPath id="clip0_54_96">
<rect width="20.4975" height="20.4975" fill="inherit" transform="translate(0.0498047)"/>
</clipPath>
</defs>
</svg>
