<svg width="21" height="21" viewBox="0 0 21 21" fill="none" xmlns="http://www.w3.org/2000/svg">
<g clip-path="url(#clip0_54_104)">
<path d="M10.2487 11.1227C11.6638 11.1227 12.8109 9.9756 12.8109 8.56054C12.8109 7.14548 11.6638 5.99835 10.2487 5.99835C8.83365 5.99835 7.68652 7.14548 7.68652 8.56054C7.68652 9.9756 8.83365 11.1227 10.2487 11.1227Z" stroke="white" stroke-width="2" stroke-linecap="round" stroke-linejoin="round"/>
<path d="M10.2488 1.72803C8.43667 1.72803 6.6988 2.44788 5.41745 3.72922C4.13611 5.01057 3.41626 6.74844 3.41626 8.56053C3.41626 10.1764 3.75959 11.2338 4.69735 12.4038L10.2488 18.8093L15.8002 12.4038C16.7379 11.2338 17.0813 10.1764 17.0813 8.56053C17.0813 6.74844 16.3614 5.01057 15.0801 3.72922C13.7987 2.44788 12.0609 1.72803 10.2488 1.72803V1.72803Z" stroke="white" stroke-width="2" stroke-linecap="round" stroke-linejoin="round"/>
</g>
<defs>
<clipPath id="clip0_54_104">
<rect width="20.4975" height="20.4975" fill="inherit" transform="translate(0 0.0198975)"/>
</clipPath>
</defs>
</svg>
