<svg width="47" height="43" viewBox="0 0 47 43" fill="none" xmlns="http://www.w3.org/2000/svg">
<path d="M19.7648 8.41211L24.706 15.8239L19.7648 23.2356H12.353L7.41187 15.8239L12.353 8.41211H19.7648Z" stroke="black" stroke-width="2" stroke-linecap="round" stroke-linejoin="round"/>
<path d="M32.1178 15.8235L37.0589 8.41176L32.1178 1H24.706L19.7648 8.41176L24.706 15.8235M32.1178 15.8235H24.706M32.1178 15.8235L37.0589 23.2353M24.706 15.8235L19.7648 23.2353L24.706 30.6471M32.1178 30.6471L37.0589 38.0588M32.1178 30.6471L37.0589 23.2353M32.1178 30.6471H24.706M4.94129 1L12.3531 8.41176M12.3531 23.2353L7.41188 28.1765M24.706 30.6471L19.7648 35.5882M7.41188 15.8235H2.4707M37.0589 23.2353H44.4707" stroke="black" stroke-width="2" stroke-linecap="round" stroke-linejoin="round"/>
<path d="M14.8236 42.9998C16.1881 42.9998 17.2942 41.8937 17.2942 40.5292C17.2942 39.1647 16.1881 38.0586 14.8236 38.0586C13.4591 38.0586 12.353 39.1647 12.353 40.5292C12.353 41.8937 13.4591 42.9998 14.8236 42.9998Z" fill="black"/>
<path d="M2.47059 35.5886C3.83506 35.5886 4.94118 34.4825 4.94118 33.118C4.94118 31.7536 3.83506 30.6475 2.47059 30.6475C1.10612 30.6475 0 31.7536 0 33.118C0 34.4825 1.10612 35.5886 2.47059 35.5886Z" fill="black"/>
<path d="M44.4706 10.8826C45.8351 10.8826 46.9412 9.77646 46.9412 8.41199C46.9412 7.04753 45.8351 5.94141 44.4706 5.94141C43.1061 5.94141 42 7.04753 42 8.41199C42 9.77646 43.1061 10.8826 44.4706 10.8826Z" fill="black"/>
</svg>
