<svg width="21" height="22" viewBox="0 0 21 22" fill="none" xmlns="http://www.w3.org/2000/svg">
<g clip-path="url(#clip0_54_99)">
<path d="M9.08832 5.9861L6.19903 2.65098C5.86594 2.26666 5.25529 2.26836 4.8684 2.65611L2.4924 5.03638C1.78523 5.7444 1.58282 6.79575 1.99191 7.63871C4.43592 12.699 8.51699 16.7858 13.5739 19.2369C14.416 19.646 15.4665 19.4436 16.1736 18.7356L18.5718 16.3331C18.9604 15.9445 18.9613 15.3304 18.5735 14.9973L15.2256 12.1234C14.8755 11.8228 14.3314 11.8621 13.9804 12.2139L12.8155 13.3806C12.7558 13.4431 12.6773 13.4843 12.592 13.4979C12.5067 13.5114 12.4193 13.4966 12.3432 13.4557C10.439 12.3592 8.85943 10.7776 7.76538 8.87198C7.72441 8.79575 7.70957 8.70819 7.72315 8.62273C7.73672 8.53726 7.77796 8.4586 7.84054 8.39883L9.00206 7.23645C9.35394 6.88287 9.39237 6.33627 9.08832 5.98525V5.9861Z" stroke="white" stroke-width="2" stroke-linecap="round" stroke-linejoin="round"/>
</g>
<defs>
<clipPath id="clip0_54_99">
<rect width="20.4975" height="20.4975" fill="inherit" transform="translate(0.074585 0.656738)"/>
</clipPath>
</defs>
</svg>
