<svg width="212" height="42" viewBox="0 0 212 42" fill="none" xmlns="http://www.w3.org/2000/svg">
<path d="M5.552 7.44H13.04V11.52H5.552V7.44ZM5.936 13.728H14.336V18H0.368V1.2H14.024V5.472H5.936V13.728ZM25.2044 18.384C23.8604 18.384 22.6124 18.176 21.4604 17.76C20.3244 17.328 19.3324 16.72 18.4844 15.936C17.6524 15.152 17.0044 14.224 16.5404 13.152C16.0764 12.08 15.8444 10.896 15.8444 9.6C15.8444 8.304 16.0764 7.12 16.5404 6.048C17.0044 4.976 17.6524 4.048 18.4844 3.264C19.3324 2.48 20.3244 1.88 21.4604 1.464C22.6124 1.032 23.8604 0.816 25.2044 0.816C26.8524 0.816 28.3084 1.104 29.5724 1.68C30.8524 2.256 31.9084 3.088 32.7404 4.176L29.1644 7.368C28.6684 6.744 28.1164 6.264 27.5084 5.928C26.9164 5.576 26.2444 5.4 25.4924 5.4C24.9004 5.4 24.3644 5.496 23.8844 5.688C23.4044 5.88 22.9884 6.16 22.6364 6.528C22.3004 6.896 22.0364 7.344 21.8444 7.872C21.6524 8.384 21.5564 8.96 21.5564 9.6C21.5564 10.24 21.6524 10.824 21.8444 11.352C22.0364 11.864 22.3004 12.304 22.6364 12.672C22.9884 13.04 23.4044 13.32 23.8844 13.512C24.3644 13.704 24.9004 13.8 25.4924 13.8C26.2444 13.8 26.9164 13.632 27.5084 13.296C28.1164 12.944 28.6684 12.456 29.1644 11.832L32.7404 15.024C31.9084 16.096 30.8524 16.928 29.5724 17.52C28.3084 18.096 26.8524 18.384 25.2044 18.384ZM42.8323 18.384C41.4723 18.384 40.2083 18.168 39.0403 17.736C37.8883 17.304 36.8883 16.696 36.0403 15.912C35.1923 15.112 34.5283 14.176 34.0483 13.104C33.5843 12.032 33.3523 10.864 33.3523 9.6C33.3523 8.32 33.5843 7.152 34.0483 6.096C34.5283 5.024 35.1923 4.096 36.0403 3.312C36.8883 2.512 37.8883 1.896 39.0403 1.464C40.2083 1.032 41.4723 0.816 42.8323 0.816C44.2083 0.816 45.4723 1.032 46.6243 1.464C47.7763 1.896 48.7763 2.512 49.6243 3.312C50.4723 4.096 51.1283 5.024 51.5923 6.096C52.0723 7.152 52.3123 8.32 52.3123 9.6C52.3123 10.864 52.0723 12.032 51.5923 13.104C51.1283 14.176 50.4723 15.112 49.6243 15.912C48.7763 16.696 47.7763 17.304 46.6243 17.736C45.4723 18.168 44.2083 18.384 42.8323 18.384ZM42.8323 13.8C43.3603 13.8 43.8483 13.704 44.2963 13.512C44.7603 13.32 45.1603 13.048 45.4963 12.696C45.8483 12.328 46.1203 11.888 46.3123 11.376C46.5043 10.848 46.6003 10.256 46.6003 9.6C46.6003 8.944 46.5043 8.36 46.3123 7.848C46.1203 7.32 45.8483 6.88 45.4963 6.528C45.1603 6.16 44.7603 5.88 44.2963 5.688C43.8483 5.496 43.3603 5.4 42.8323 5.4C42.3043 5.4 41.8083 5.496 41.3443 5.688C40.8963 5.88 40.4963 6.16 40.1443 6.528C39.8083 6.88 39.5443 7.32 39.3523 7.848C39.1603 8.36 39.0643 8.944 39.0643 9.6C39.0643 10.256 39.1603 10.848 39.3523 11.376C39.5443 11.888 39.8083 12.328 40.1443 12.696C40.4963 13.048 40.8963 13.32 41.3443 13.512C41.8083 13.704 42.3043 13.8 42.8323 13.8ZM60.632 18.384C59.224 18.384 57.864 18.224 56.552 17.904C55.24 17.584 54.16 17.168 53.312 16.656L55.136 12.528C55.936 12.992 56.824 13.368 57.8 13.656C58.792 13.928 59.752 14.064 60.68 14.064C61.224 14.064 61.648 14.032 61.952 13.968C62.272 13.888 62.504 13.784 62.648 13.656C62.792 13.512 62.864 13.344 62.864 13.152C62.864 12.848 62.696 12.608 62.36 12.432C62.024 12.256 61.576 12.112 61.016 12C60.472 11.872 59.872 11.744 59.216 11.616C58.56 11.472 57.896 11.288 57.224 11.064C56.568 10.84 55.96 10.544 55.4 10.176C54.856 9.808 54.416 9.328 54.08 8.736C53.744 8.128 53.576 7.376 53.576 6.48C53.576 5.44 53.864 4.496 54.44 3.648C55.032 2.784 55.904 2.096 57.056 1.584C58.224 1.072 59.672 0.816 61.4 0.816C62.536 0.816 63.656 0.935999 64.76 1.176C65.864 1.416 66.856 1.784 67.736 2.28L66.032 6.384C65.2 5.968 64.392 5.656 63.608 5.448C62.84 5.24 62.088 5.136 61.352 5.136C60.808 5.136 60.376 5.184 60.056 5.28C59.736 5.376 59.504 5.504 59.36 5.664C59.232 5.824 59.168 6 59.168 6.192C59.168 6.48 59.336 6.712 59.672 6.888C60.008 7.048 60.448 7.184 60.992 7.296C61.552 7.408 62.16 7.528 62.816 7.656C63.488 7.784 64.152 7.96 64.808 8.184C65.464 8.408 66.064 8.704 66.608 9.072C67.168 9.44 67.616 9.92 67.952 10.512C68.288 11.104 68.456 11.84 68.456 12.72C68.456 13.744 68.16 14.688 67.568 15.552C66.992 16.4 66.128 17.088 64.976 17.616C63.824 18.128 62.376 18.384 60.632 18.384ZM74.1099 18V10.632L75.4059 14.016L67.7739 1.2H73.7499L78.9099 9.96H75.4299L80.6379 1.2H86.1099L78.5259 14.016L79.7739 10.632V18H74.1099ZM92.7414 18.384C91.3334 18.384 89.9734 18.224 88.6614 17.904C87.3494 17.584 86.2694 17.168 85.4214 16.656L87.2454 12.528C88.0454 12.992 88.9334 13.368 89.9094 13.656C90.9014 13.928 91.8614 14.064 92.7894 14.064C93.3334 14.064 93.7574 14.032 94.0614 13.968C94.3814 13.888 94.6134 13.784 94.7574 13.656C94.9014 13.512 94.9734 13.344 94.9734 13.152C94.9734 12.848 94.8054 12.608 94.4694 12.432C94.1334 12.256 93.6854 12.112 93.1254 12C92.5814 11.872 91.9814 11.744 91.3254 11.616C90.6694 11.472 90.0054 11.288 89.3334 11.064C88.6774 10.84 88.0694 10.544 87.5094 10.176C86.9654 9.808 86.5254 9.328 86.1894 8.736C85.8534 8.128 85.6854 7.376 85.6854 6.48C85.6854 5.44 85.9734 4.496 86.5494 3.648C87.1414 2.784 88.0134 2.096 89.1654 1.584C90.3334 1.072 91.7814 0.816 93.5094 0.816C94.6454 0.816 95.7654 0.935999 96.8694 1.176C97.9734 1.416 98.9654 1.784 99.8454 2.28L98.1414 6.384C97.3094 5.968 96.5014 5.656 95.7174 5.448C94.9494 5.24 94.1974 5.136 93.4614 5.136C92.9174 5.136 92.4854 5.184 92.1654 5.28C91.8454 5.376 91.6134 5.504 91.4694 5.664C91.3414 5.824 91.2774 6 91.2774 6.192C91.2774 6.48 91.4454 6.712 91.7814 6.888C92.1174 7.048 92.5574 7.184 93.1014 7.296C93.6614 7.408 94.2694 7.528 94.9254 7.656C95.5974 7.784 96.2614 7.96 96.9174 8.184C97.5734 8.408 98.1734 8.704 98.7174 9.072C99.2774 9.44 99.7254 9.92 100.061 10.512C100.397 11.104 100.565 11.84 100.565 12.72C100.565 13.744 100.269 14.688 99.6774 15.552C99.1014 16.4 98.2374 17.088 97.0854 17.616C95.9334 18.128 94.4854 18.384 92.7414 18.384ZM105.664 18V5.592H100.744V1.2H116.248V5.592H111.328V18H105.664ZM122.904 7.44H130.392V11.52H122.904V7.44ZM123.288 13.728H131.688V18H117.72V1.2H131.376V5.472H123.288V13.728ZM133.868 18V1.2H138.524L145.244 12.168H142.796L149.324 1.2H153.98L154.028 18H148.868L148.82 8.976H149.636L145.172 16.488H142.676L138.02 8.976H139.028V18H133.868ZM163.03 18.384C161.622 18.384 160.262 18.224 158.95 17.904C157.638 17.584 156.558 17.168 155.71 16.656L157.534 12.528C158.334 12.992 159.222 13.368 160.198 13.656C161.19 13.928 162.15 14.064 163.078 14.064C163.622 14.064 164.046 14.032 164.35 13.968C164.67 13.888 164.902 13.784 165.046 13.656C165.19 13.512 165.262 13.344 165.262 13.152C165.262 12.848 165.094 12.608 164.758 12.432C164.422 12.256 163.974 12.112 163.414 12C162.87 11.872 162.27 11.744 161.614 11.616C160.958 11.472 160.294 11.288 159.622 11.064C158.966 10.84 158.358 10.544 157.798 10.176C157.254 9.808 156.814 9.328 156.478 8.736C156.142 8.128 155.974 7.376 155.974 6.48C155.974 5.44 156.262 4.496 156.838 3.648C157.43 2.784 158.302 2.096 159.454 1.584C160.622 1.072 162.07 0.816 163.798 0.816C164.934 0.816 166.054 0.935999 167.158 1.176C168.262 1.416 169.254 1.784 170.134 2.28L168.43 6.384C167.598 5.968 166.79 5.656 166.006 5.448C165.238 5.24 164.486 5.136 163.75 5.136C163.206 5.136 162.774 5.184 162.454 5.28C162.134 5.376 161.902 5.504 161.758 5.664C161.63 5.824 161.566 6 161.566 6.192C161.566 6.48 161.734 6.712 162.07 6.888C162.406 7.048 162.846 7.184 163.39 7.296C163.95 7.408 164.558 7.528 165.214 7.656C165.886 7.784 166.55 7.96 167.206 8.184C167.862 8.408 168.462 8.704 169.006 9.072C169.566 9.44 170.014 9.92 170.35 10.512C170.686 11.104 170.854 11.84 170.854 12.72C170.854 13.744 170.558 14.688 169.966 15.552C169.39 16.4 168.526 17.088 167.374 17.616C166.222 18.128 164.774 18.384 163.03 18.384ZM0.368 41V24.2H6.032V41H0.368ZM8.75863 41V24.2H13.4146L21.9586 34.424H19.7986V24.2H25.3186V41H20.6626L12.1186 30.776H14.2786V41H8.75863ZM31.6957 41V28.592H26.7757V24.2H42.2797V28.592H37.3597V41H31.6957ZM48.9348 30.44H56.4228V34.52H48.9348V30.44ZM49.3188 36.728H57.7188V41H43.7508V24.2H57.4068V28.472H49.3188V36.728ZM59.8993 41V24.2H67.9873C69.5553 24.2 70.9073 24.456 72.0433 24.968C73.1953 25.48 74.0833 26.216 74.7073 27.176C75.3313 28.12 75.6433 29.24 75.6433 30.536C75.6433 31.832 75.3313 32.952 74.7073 33.896C74.0833 34.824 73.1953 35.536 72.0433 36.032C70.9073 36.528 69.5553 36.776 67.9873 36.776H63.0433L65.5633 34.448V41H59.8993ZM69.9553 41L65.8273 34.88H71.8273L76.0033 41H69.9553ZM65.5633 35.072L63.0433 32.504H67.6273C68.4113 32.504 68.9873 32.328 69.3553 31.976C69.7393 31.624 69.9313 31.144 69.9313 30.536C69.9313 29.928 69.7393 29.448 69.3553 29.096C68.9873 28.744 68.4113 28.568 67.6273 28.568H63.0433L65.5633 26V35.072ZM77.7821 41V24.2H82.4381L90.9821 34.424H88.8221V24.2H94.3421V41H89.6861L81.1421 30.776H83.3021V41H77.7821ZM95.2471 41L102.591 24.2H108.159L115.503 41H109.647L104.223 26.888H106.431L101.007 41H95.2471ZM99.6151 38.072L101.055 33.992H108.783L110.223 38.072H99.6151ZM119.211 41V28.592H114.291V24.2H129.795V28.592H124.875V41H119.211ZM131.266 41V24.2H136.93V41H131.266ZM148.465 41.384C147.105 41.384 145.841 41.168 144.673 40.736C143.521 40.304 142.521 39.696 141.673 38.912C140.825 38.112 140.161 37.176 139.681 36.104C139.217 35.032 138.985 33.864 138.985 32.6C138.985 31.32 139.217 30.152 139.681 29.096C140.161 28.024 140.825 27.096 141.673 26.312C142.521 25.512 143.521 24.896 144.673 24.464C145.841 24.032 147.105 23.816 148.465 23.816C149.841 23.816 151.105 24.032 152.257 24.464C153.409 24.896 154.409 25.512 155.257 26.312C156.105 27.096 156.761 28.024 157.225 29.096C157.705 30.152 157.945 31.32 157.945 32.6C157.945 33.864 157.705 35.032 157.225 36.104C156.761 37.176 156.105 38.112 155.257 38.912C154.409 39.696 153.409 40.304 152.257 40.736C151.105 41.168 149.841 41.384 148.465 41.384ZM148.465 36.8C148.993 36.8 149.481 36.704 149.929 36.512C150.393 36.32 150.793 36.048 151.129 35.696C151.481 35.328 151.753 34.888 151.945 34.376C152.137 33.848 152.233 33.256 152.233 32.6C152.233 31.944 152.137 31.36 151.945 30.848C151.753 30.32 151.481 29.88 151.129 29.528C150.793 29.16 150.393 28.88 149.929 28.688C149.481 28.496 148.993 28.4 148.465 28.4C147.937 28.4 147.441 28.496 146.977 28.688C146.529 28.88 146.129 29.16 145.777 29.528C145.441 29.88 145.177 30.32 144.985 30.848C144.793 31.36 144.697 31.944 144.697 32.6C144.697 33.256 144.793 33.848 144.985 34.376C145.177 34.888 145.441 35.328 145.777 35.696C146.129 36.048 146.529 36.32 146.977 36.512C147.441 36.704 147.937 36.8 148.465 36.8ZM160.001 41V24.2H164.657L173.201 34.424H171.041V24.2H176.561V41H171.905L163.361 30.776H165.521V41H160.001ZM177.466 41L184.81 24.2H190.378L197.722 41H191.866L186.442 26.888H188.65L183.226 41H177.466ZM181.834 38.072L183.274 33.992H191.002L192.442 38.072H181.834ZM198.626 41V24.2H204.29V36.608H211.874V41H198.626Z" fill="white"/>
</svg>
