<svg width="214" height="46" viewBox="0 0 214 46" fill="none" xmlns="http://www.w3.org/2000/svg">
<path d="M6.552 9.44H14.04V13.52H6.552V9.44ZM6.936 15.728H15.336V20H1.368V3.2H15.024V7.472H6.936V15.728ZM26.2044 20.384C24.8604 20.384 23.6124 20.176 22.4604 19.76C21.3244 19.328 20.3324 18.72 19.4844 17.936C18.6524 17.152 18.0044 16.224 17.5404 15.152C17.0764 14.08 16.8444 12.896 16.8444 11.6C16.8444 10.304 17.0764 9.12 17.5404 8.048C18.0044 6.976 18.6524 6.048 19.4844 5.264C20.3324 4.48 21.3244 3.88 22.4604 3.464C23.6124 3.032 24.8604 2.816 26.2044 2.816C27.8524 2.816 29.3084 3.104 30.5724 3.68C31.8524 4.256 32.9084 5.088 33.7404 6.176L30.1644 9.368C29.6684 8.744 29.1164 8.264 28.5084 7.928C27.9164 7.576 27.2444 7.4 26.4924 7.4C25.9004 7.4 25.3644 7.496 24.8844 7.688C24.4044 7.88 23.9884 8.16 23.6364 8.528C23.3004 8.896 23.0364 9.344 22.8444 9.872C22.6524 10.384 22.5564 10.96 22.5564 11.6C22.5564 12.24 22.6524 12.824 22.8444 13.352C23.0364 13.864 23.3004 14.304 23.6364 14.672C23.9884 15.04 24.4044 15.32 24.8844 15.512C25.3644 15.704 25.9004 15.8 26.4924 15.8C27.2444 15.8 27.9164 15.632 28.5084 15.296C29.1164 14.944 29.6684 14.456 30.1644 13.832L33.7404 17.024C32.9084 18.096 31.8524 18.928 30.5724 19.52C29.3084 20.096 27.8524 20.384 26.2044 20.384ZM43.8323 20.384C42.4723 20.384 41.2083 20.168 40.0403 19.736C38.8883 19.304 37.8883 18.696 37.0403 17.912C36.1923 17.112 35.5283 16.176 35.0483 15.104C34.5843 14.032 34.3523 12.864 34.3523 11.6C34.3523 10.32 34.5843 9.152 35.0483 8.096C35.5283 7.024 36.1923 6.096 37.0403 5.312C37.8883 4.512 38.8883 3.896 40.0403 3.464C41.2083 3.032 42.4723 2.816 43.8323 2.816C45.2083 2.816 46.4723 3.032 47.6243 3.464C48.7763 3.896 49.7763 4.512 50.6243 5.312C51.4723 6.096 52.1283 7.024 52.5923 8.096C53.0723 9.152 53.3123 10.32 53.3123 11.6C53.3123 12.864 53.0723 14.032 52.5923 15.104C52.1283 16.176 51.4723 17.112 50.6243 17.912C49.7763 18.696 48.7763 19.304 47.6243 19.736C46.4723 20.168 45.2083 20.384 43.8323 20.384ZM43.8323 15.8C44.3603 15.8 44.8483 15.704 45.2963 15.512C45.7603 15.32 46.1603 15.048 46.4963 14.696C46.8483 14.328 47.1203 13.888 47.3123 13.376C47.5043 12.848 47.6003 12.256 47.6003 11.6C47.6003 10.944 47.5043 10.36 47.3123 9.848C47.1203 9.32 46.8483 8.88 46.4963 8.528C46.1603 8.16 45.7603 7.88 45.2963 7.688C44.8483 7.496 44.3603 7.4 43.8323 7.4C43.3043 7.4 42.8083 7.496 42.3443 7.688C41.8963 7.88 41.4963 8.16 41.1443 8.528C40.8083 8.88 40.5443 9.32 40.3523 9.848C40.1603 10.36 40.0643 10.944 40.0643 11.6C40.0643 12.256 40.1603 12.848 40.3523 13.376C40.5443 13.888 40.8083 14.328 41.1443 14.696C41.4963 15.048 41.8963 15.32 42.3443 15.512C42.8083 15.704 43.3043 15.8 43.8323 15.8ZM61.632 20.384C60.224 20.384 58.864 20.224 57.552 19.904C56.24 19.584 55.16 19.168 54.312 18.656L56.136 14.528C56.936 14.992 57.824 15.368 58.8 15.656C59.792 15.928 60.752 16.064 61.68 16.064C62.224 16.064 62.648 16.032 62.952 15.968C63.272 15.888 63.504 15.784 63.648 15.656C63.792 15.512 63.864 15.344 63.864 15.152C63.864 14.848 63.696 14.608 63.36 14.432C63.024 14.256 62.576 14.112 62.016 14C61.472 13.872 60.872 13.744 60.216 13.616C59.56 13.472 58.896 13.288 58.224 13.064C57.568 12.84 56.96 12.544 56.4 12.176C55.856 11.808 55.416 11.328 55.08 10.736C54.744 10.128 54.576 9.376 54.576 8.48C54.576 7.44 54.864 6.496 55.44 5.648C56.032 4.784 56.904 4.096 58.056 3.584C59.224 3.072 60.672 2.816 62.4 2.816C63.536 2.816 64.656 2.936 65.76 3.176C66.864 3.416 67.856 3.784 68.736 4.28L67.032 8.384C66.2 7.968 65.392 7.656 64.608 7.448C63.84 7.24 63.088 7.136 62.352 7.136C61.808 7.136 61.376 7.184 61.056 7.28C60.736 7.376 60.504 7.504 60.36 7.664C60.232 7.824 60.168 8 60.168 8.192C60.168 8.48 60.336 8.712 60.672 8.888C61.008 9.048 61.448 9.184 61.992 9.296C62.552 9.408 63.16 9.528 63.816 9.656C64.488 9.784 65.152 9.96 65.808 10.184C66.464 10.408 67.064 10.704 67.608 11.072C68.168 11.44 68.616 11.92 68.952 12.512C69.288 13.104 69.456 13.84 69.456 14.72C69.456 15.744 69.16 16.688 68.568 17.552C67.992 18.4 67.128 19.088 65.976 19.616C64.824 20.128 63.376 20.384 61.632 20.384ZM75.1099 20V12.632L76.4059 16.016L68.7739 3.2H74.7499L79.9099 11.96H76.4299L81.6379 3.2H87.1099L79.5259 16.016L80.7739 12.632V20H75.1099ZM93.7414 20.384C92.3334 20.384 90.9734 20.224 89.6614 19.904C88.3494 19.584 87.2694 19.168 86.4214 18.656L88.2454 14.528C89.0454 14.992 89.9334 15.368 90.9094 15.656C91.9014 15.928 92.8614 16.064 93.7894 16.064C94.3334 16.064 94.7574 16.032 95.0614 15.968C95.3814 15.888 95.6134 15.784 95.7574 15.656C95.9014 15.512 95.9734 15.344 95.9734 15.152C95.9734 14.848 95.8054 14.608 95.4694 14.432C95.1334 14.256 94.6854 14.112 94.1254 14C93.5814 13.872 92.9814 13.744 92.3254 13.616C91.6694 13.472 91.0054 13.288 90.3334 13.064C89.6774 12.84 89.0694 12.544 88.5094 12.176C87.9654 11.808 87.5254 11.328 87.1894 10.736C86.8534 10.128 86.6854 9.376 86.6854 8.48C86.6854 7.44 86.9734 6.496 87.5494 5.648C88.1414 4.784 89.0134 4.096 90.1654 3.584C91.3334 3.072 92.7814 2.816 94.5094 2.816C95.6454 2.816 96.7654 2.936 97.8694 3.176C98.9734 3.416 99.9654 3.784 100.845 4.28L99.1414 8.384C98.3094 7.968 97.5014 7.656 96.7174 7.448C95.9494 7.24 95.1974 7.136 94.4614 7.136C93.9174 7.136 93.4854 7.184 93.1654 7.28C92.8454 7.376 92.6134 7.504 92.4694 7.664C92.3414 7.824 92.2774 8 92.2774 8.192C92.2774 8.48 92.4454 8.712 92.7814 8.888C93.1174 9.048 93.5574 9.184 94.1014 9.296C94.6614 9.408 95.2694 9.528 95.9254 9.656C96.5974 9.784 97.2614 9.96 97.9174 10.184C98.5734 10.408 99.1734 10.704 99.7174 11.072C100.277 11.44 100.725 11.92 101.061 12.512C101.397 13.104 101.565 13.84 101.565 14.72C101.565 15.744 101.269 16.688 100.677 17.552C100.101 18.4 99.2374 19.088 98.0854 19.616C96.9334 20.128 95.4854 20.384 93.7414 20.384ZM106.664 20V7.592H101.744V3.2H117.248V7.592H112.328V20H106.664ZM123.904 9.44H131.392V13.52H123.904V9.44ZM124.288 15.728H132.688V20H118.72V3.2H132.376V7.472H124.288V15.728ZM134.868 20V3.2H139.524L146.244 14.168H143.796L150.324 3.2H154.98L155.028 20H149.868L149.82 10.976H150.636L146.172 18.488H143.676L139.02 10.976H140.028V20H134.868ZM164.03 20.384C162.622 20.384 161.262 20.224 159.95 19.904C158.638 19.584 157.558 19.168 156.71 18.656L158.534 14.528C159.334 14.992 160.222 15.368 161.198 15.656C162.19 15.928 163.15 16.064 164.078 16.064C164.622 16.064 165.046 16.032 165.35 15.968C165.67 15.888 165.902 15.784 166.046 15.656C166.19 15.512 166.262 15.344 166.262 15.152C166.262 14.848 166.094 14.608 165.758 14.432C165.422 14.256 164.974 14.112 164.414 14C163.87 13.872 163.27 13.744 162.614 13.616C161.958 13.472 161.294 13.288 160.622 13.064C159.966 12.84 159.358 12.544 158.798 12.176C158.254 11.808 157.814 11.328 157.478 10.736C157.142 10.128 156.974 9.376 156.974 8.48C156.974 7.44 157.262 6.496 157.838 5.648C158.43 4.784 159.302 4.096 160.454 3.584C161.622 3.072 163.07 2.816 164.798 2.816C165.934 2.816 167.054 2.936 168.158 3.176C169.262 3.416 170.254 3.784 171.134 4.28L169.43 8.384C168.598 7.968 167.79 7.656 167.006 7.448C166.238 7.24 165.486 7.136 164.75 7.136C164.206 7.136 163.774 7.184 163.454 7.28C163.134 7.376 162.902 7.504 162.758 7.664C162.63 7.824 162.566 8 162.566 8.192C162.566 8.48 162.734 8.712 163.07 8.888C163.406 9.048 163.846 9.184 164.39 9.296C164.95 9.408 165.558 9.528 166.214 9.656C166.886 9.784 167.55 9.96 168.206 10.184C168.862 10.408 169.462 10.704 170.006 11.072C170.566 11.44 171.014 11.92 171.35 12.512C171.686 13.104 171.854 13.84 171.854 14.72C171.854 15.744 171.558 16.688 170.966 17.552C170.39 18.4 169.526 19.088 168.374 19.616C167.222 20.128 165.774 20.384 164.03 20.384ZM1.368 43V26.2H7.032V43H1.368ZM9.75863 43V26.2H14.4146L22.9586 36.424H20.7986V26.2H26.3186V43H21.6626L13.1186 32.776H15.2786V43H9.75863ZM32.6957 43V30.592H27.7757V26.2H43.2797V30.592H38.3597V43H32.6957ZM49.9348 32.44H57.4228V36.52H49.9348V32.44ZM50.3188 38.728H58.7188V43H44.7508V26.2H58.4068V30.472H50.3188V38.728ZM60.8993 43V26.2H68.9873C70.5553 26.2 71.9073 26.456 73.0433 26.968C74.1953 27.48 75.0833 28.216 75.7073 29.176C76.3313 30.12 76.6433 31.24 76.6433 32.536C76.6433 33.832 76.3313 34.952 75.7073 35.896C75.0833 36.824 74.1953 37.536 73.0433 38.032C71.9073 38.528 70.5553 38.776 68.9873 38.776H64.0433L66.5633 36.448V43H60.8993ZM70.9553 43L66.8273 36.88H72.8273L77.0033 43H70.9553ZM66.5633 37.072L64.0433 34.504H68.6273C69.4113 34.504 69.9873 34.328 70.3553 33.976C70.7393 33.624 70.9313 33.144 70.9313 32.536C70.9313 31.928 70.7393 31.448 70.3553 31.096C69.9873 30.744 69.4113 30.568 68.6273 30.568H64.0433L66.5633 28V37.072ZM78.7821 43V26.2H83.4381L91.9821 36.424H89.8221V26.2H95.3421V43H90.6861L82.1421 32.776H84.3021V43H78.7821ZM96.2471 43L103.591 26.2H109.159L116.503 43H110.647L105.223 28.888H107.431L102.007 43H96.2471ZM100.615 40.072L102.055 35.992H109.783L111.223 40.072H100.615ZM120.211 43V30.592H115.291V26.2H130.795V30.592H125.875V43H120.211ZM132.266 43V26.2H137.93V43H132.266ZM149.465 43.384C148.105 43.384 146.841 43.168 145.673 42.736C144.521 42.304 143.521 41.696 142.673 40.912C141.825 40.112 141.161 39.176 140.681 38.104C140.217 37.032 139.985 35.864 139.985 34.6C139.985 33.32 140.217 32.152 140.681 31.096C141.161 30.024 141.825 29.096 142.673 28.312C143.521 27.512 144.521 26.896 145.673 26.464C146.841 26.032 148.105 25.816 149.465 25.816C150.841 25.816 152.105 26.032 153.257 26.464C154.409 26.896 155.409 27.512 156.257 28.312C157.105 29.096 157.761 30.024 158.225 31.096C158.705 32.152 158.945 33.32 158.945 34.6C158.945 35.864 158.705 37.032 158.225 38.104C157.761 39.176 157.105 40.112 156.257 40.912C155.409 41.696 154.409 42.304 153.257 42.736C152.105 43.168 150.841 43.384 149.465 43.384ZM149.465 38.8C149.993 38.8 150.481 38.704 150.929 38.512C151.393 38.32 151.793 38.048 152.129 37.696C152.481 37.328 152.753 36.888 152.945 36.376C153.137 35.848 153.233 35.256 153.233 34.6C153.233 33.944 153.137 33.36 152.945 32.848C152.753 32.32 152.481 31.88 152.129 31.528C151.793 31.16 151.393 30.88 150.929 30.688C150.481 30.496 149.993 30.4 149.465 30.4C148.937 30.4 148.441 30.496 147.977 30.688C147.529 30.88 147.129 31.16 146.777 31.528C146.441 31.88 146.177 32.32 145.985 32.848C145.793 33.36 145.697 33.944 145.697 34.6C145.697 35.256 145.793 35.848 145.985 36.376C146.177 36.888 146.441 37.328 146.777 37.696C147.129 38.048 147.529 38.32 147.977 38.512C148.441 38.704 148.937 38.8 149.465 38.8ZM161.001 43V26.2H165.657L174.201 36.424H172.041V26.2H177.561V43H172.905L164.361 32.776H166.521V43H161.001ZM178.466 43L185.81 26.2H191.378L198.722 43H192.866L187.442 28.888H189.65L184.226 43H178.466ZM182.834 40.072L184.274 35.992H192.002L193.442 40.072H182.834ZM199.626 43V26.2H205.29V38.608H212.874V43H199.626Z" fill="#A4E48D"/>
</svg>
