<svg width="1440" height="976" viewBox="0 0 1440 976" fill="none" xmlns="http://www.w3.org/2000/svg">
<path d="M-0.777779 -0.444336H1439.22V975.556C1218.22 751.556 960.222 836.556 854.722 690.556C749.222 544.556 699.222 497.556 544.222 451.556C389.222 405.556 103.222 478.056 -0.777775 394.556C-104.778 311.056 -0.777779 197.556 -0.777779 -0.444336Z" fill="#A4E48D"/>
<path d="M-0.777779 -0.44445C6.72221 -201.944 1439.22 -0.44445 1439.22 -0.44445V814.056C1201.72 566.056 915.722 759.556 779.222 675.056C642.722 590.556 741.222 446.556 609.722 377.556C478.222 308.556 288.222 419.556 162.722 377.556C37.2222 335.556 -8.27777 201.056 -0.777779 -0.44445Z" fill="#97D4E7"/>
</svg>
