<svg width="79" height="86" viewBox="0 0 79 86" fill="none" xmlns="http://www.w3.org/2000/svg">
<path d="M38.7027 17.5925L38.6535 17.7606C38.4761 18.3664 37.9623 18.8071 37.3525 18.8934C36.7428 18.8071 36.229 18.3664 36.0515 17.7606L36.0023 17.5925C35.8566 17.0948 35.3248 16.8197 34.8344 16.9883L34.0402 17.2612C33.5498 17.4298 33.2995 17.9735 33.4904 18.4557L33.6716 18.9133C33.9128 19.5227 33.7593 20.2191 33.2799 20.6658C33.2073 20.7335 33.1361 20.8029 33.0664 20.8739C32.5492 21.4017 31.7386 21.5066 31.1065 21.124C30.6631 20.8553 30.0851 21.0116 29.8372 21.4668L29.4358 22.2044C29.1879 22.6599 29.3705 23.23 29.8367 23.4567L30.301 23.6825C30.8683 23.9584 31.2261 24.5422 31.1992 25.1725C31.1952 25.2658 31.1933 25.3599 31.1933 25.4543C31.1933 25.5041 31.1939 25.5535 31.1949 25.603C31.2111 26.3199 30.7328 26.9548 30.0445 27.1554C29.5468 27.3006 29.271 27.8319 29.4388 28.3224L29.7106 29.117C29.8783 29.6077 30.422 29.8586 30.904 29.6685L31.2213 29.5435C31.8297 29.3036 32.5228 29.4588 32.9707 29.9353C33.0514 30.021 33.1345 30.1047 33.2197 30.1861C33.7157 30.6602 33.8647 31.3922 33.5767 32.0149L33.4834 32.2166C33.2659 32.6872 33.485 33.2443 33.9652 33.4401L34.7427 33.7571C35.2229 33.9529 35.7692 33.7082 35.9426 33.2196L35.9991 33.0607C36.2088 32.4702 36.7409 32.0671 37.3525 32.0063C37.9642 32.0671 38.4962 32.4702 38.7059 33.0607L38.7624 33.2196C38.9358 33.7082 39.4821 33.9529 39.9623 33.7571L40.7398 33.4401C41.22 33.2443 41.4394 32.6872 41.2216 32.2166L41.1283 32.0149C40.8404 31.3922 40.9893 30.6599 41.4854 30.1861C41.5706 30.1047 41.6534 30.021 41.7343 29.9353C42.1822 29.4588 42.8753 29.3033 43.4838 29.5435L43.801 29.6685C44.2833 29.8586 44.8267 29.6077 44.9945 29.117L45.2663 28.3224C45.434 27.8319 45.1582 27.3003 44.6605 27.1554C43.9723 26.9548 43.494 26.3199 43.5101 25.603C43.5112 25.5535 43.5117 25.5041 43.5117 25.4543C43.5117 25.3599 43.5096 25.2661 43.5058 25.1725C43.4789 24.5422 43.8368 23.9584 44.4041 23.6825L44.8684 23.4567C45.3346 23.23 45.5171 22.6596 45.2692 22.2044L44.8678 21.4668C44.6199 21.0113 44.0419 20.8553 43.5986 21.124C42.9665 21.5069 42.1556 21.4017 41.6386 20.8739C41.569 20.8029 41.498 20.7335 41.4251 20.6658C40.9458 20.2188 40.7923 19.5224 41.0334 18.9133L41.2146 18.4557C41.4055 17.9735 41.1552 17.4295 40.6648 17.2612L39.8706 16.9883C39.3802 16.8197 38.8487 17.0948 38.703 17.5925H38.7027ZM41.7327 25.4543C41.7327 27.9529 39.801 30.0089 37.3525 30.2066C34.9041 30.0092 32.9723 27.9532 32.9723 25.4543C32.9723 22.9554 34.9043 20.9 37.3525 20.7023C39.8007 20.9 41.7327 22.9554 41.7327 25.4543Z" fill="#97D4E7"/>
<path d="M37.0383 59.2811L37.5026 59.0552C37.9688 58.8285 38.1514 58.2582 37.9035 57.8029L37.5021 57.0653C37.2542 56.6098 36.6762 56.4538 36.2328 56.7225C35.6007 57.1051 34.7899 57.0002 34.2729 56.4724C34.2032 56.4014 34.1322 56.332 34.0594 56.2643C33.58 55.8174 33.4265 55.1209 33.6677 54.5118L33.8489 54.0542C34.0398 53.572 33.7895 53.0283 33.2991 52.8597L32.5049 52.5868C32.0145 52.4182 31.483 52.6933 31.3372 53.191L31.288 53.3591C31.1106 53.9649 30.5968 54.4056 29.987 54.4919C29.3773 54.4056 28.8635 53.9649 28.686 53.3591L28.6368 53.191C28.4911 52.6933 27.9593 52.4182 27.4689 52.5868L26.6747 52.8597C26.1844 53.0283 25.934 53.572 26.1249 54.0542L26.3061 54.5118C26.5473 55.1212 26.3938 55.8176 25.9144 56.2643C25.8418 56.332 25.7706 56.4014 25.701 56.4724C25.1837 57.0002 24.3731 57.1051 23.741 56.7225C23.2977 56.4538 22.7196 56.6101 22.4717 57.0653L22.0703 57.8029C21.8224 58.2584 22.005 58.8285 22.4712 59.0552L22.9355 59.2811C23.5028 59.5569 23.8606 60.1407 23.8338 60.771C23.8297 60.8643 23.8278 60.9584 23.8278 61.0528C23.8278 61.1026 23.8284 61.1521 23.8294 61.2015C23.8456 61.9184 23.3673 62.5533 22.679 62.7539C22.1814 62.8991 21.9055 63.4304 22.0733 63.9209L22.3451 64.7155C22.5129 65.2063 23.0565 65.4571 23.5385 65.267L23.8558 65.142C24.4642 64.9021 25.1573 65.0573 25.6052 65.5338C25.6859 65.6196 25.769 65.7032 25.8542 65.7847C26.3502 66.2587 26.4992 66.9907 26.2112 67.6134L26.1179 67.8154C25.9004 68.286 26.1196 68.8431 26.5997 69.0389L27.3773 69.3559C27.8574 69.5517 28.4038 69.307 28.5772 68.8184L28.6336 68.6595C28.8433 68.069 29.3754 67.6659 29.987 67.6051C30.5987 67.6659 31.1307 68.069 31.3405 68.6595L31.3969 68.8184C31.5703 69.307 32.1166 69.5517 32.5968 69.3559L33.3743 69.0389C33.8545 68.8431 34.0739 68.286 33.8561 67.8154L33.7628 67.6134C33.4749 66.9907 33.6238 66.2587 34.1199 65.7847C34.2051 65.7032 34.2879 65.6196 34.3688 65.5338C34.8168 65.0573 35.5099 64.9019 36.1183 65.142L36.4355 65.267C36.9179 65.4571 37.4612 65.2063 37.629 64.7155L37.9008 63.9209C38.0686 63.4304 37.7927 62.8988 37.2951 62.7539C36.6068 62.5533 36.1285 61.9184 36.1446 61.2015C36.1457 61.1521 36.1462 61.1026 36.1462 61.0528C36.1462 60.9584 36.1441 60.8646 36.1403 60.771C36.1134 60.1407 36.4713 59.5569 37.0386 59.2811H37.0383ZM29.987 65.8048C27.5386 65.6075 25.6069 63.5514 25.6069 61.0526C25.6069 58.5537 27.5388 56.4982 29.987 56.3006C32.4352 56.4982 34.3672 58.5537 34.3672 61.0526C34.3672 63.5514 32.4355 65.6072 29.987 65.8048Z" fill="#97D4E7"/>
<path d="M23.0823 50.8868L23.1549 50.6824C23.4246 49.9231 24.1088 49.4049 24.8952 49.3266C25.6819 49.4049 26.3658 49.9231 26.6355 50.6824L26.7081 50.8868C26.9312 51.5152 27.6338 51.8298 28.251 51.5781L29.2509 51.1705C29.8682 50.9188 30.1502 50.2024 29.8704 49.5971L29.7504 49.3377C29.3802 48.5369 29.5717 47.5955 30.2094 46.9859C30.3188 46.8813 30.4255 46.7737 30.5293 46.6632C31.1055 46.0504 31.9967 45.8508 32.7788 46.1593L33.187 46.3201C33.8072 46.5648 34.506 46.2418 34.7216 45.611L35.0711 44.5892C35.287 43.9583 34.9324 43.275 34.2922 43.0884C33.4071 42.8303 32.7923 42.0142 32.813 41.0924C32.8143 41.0289 32.8151 40.9652 32.8151 40.9012C32.8151 40.7799 32.8124 40.6589 32.8073 40.539C32.7726 39.7285 33.2329 38.9778 33.9623 38.6231L34.5592 38.3327C35.1587 38.0412 35.3934 37.3079 35.0746 36.7222L34.5584 35.7738C34.2395 35.1882 33.4964 34.9873 32.9262 35.3328C32.1134 35.8252 31.0708 35.6899 30.4059 35.0112C30.3164 34.9201 30.225 34.8308 30.1314 34.7437C29.5152 34.1693 29.3176 33.2736 29.6278 32.4903L29.8609 31.9017C30.1064 31.2816 29.7843 30.5824 29.1539 30.3657L28.1327 30.0148C27.5023 29.7981 26.8186 30.1519 26.6312 30.7917L26.568 31.0076C26.3398 31.7868 25.6789 32.3534 24.8949 32.4645C24.1109 32.3534 23.4501 31.7868 23.2218 31.0076L23.1587 30.7917C22.9713 30.1517 22.2876 29.7981 21.6571 30.0148L20.636 30.3657C20.0055 30.5824 19.6837 31.2819 19.9289 31.9017L20.162 32.4903C20.472 33.2736 20.2746 34.1693 19.6584 34.7437C19.5649 34.8308 19.4735 34.9201 19.3839 35.0112C18.7188 35.6899 17.6762 35.8249 16.8637 35.3328C16.2934 34.9876 15.5503 35.1882 15.2315 35.7738L14.7153 36.7222C14.3964 37.3079 14.6311 38.0409 15.2307 38.3327L15.8275 38.6231C16.5569 38.9778 17.0172 39.7285 16.9825 40.539C16.9774 40.6592 16.9747 40.7799 16.9747 40.9012C16.9747 40.9649 16.9755 41.0287 16.9769 41.0924C16.9976 42.0142 16.3827 42.8306 15.4976 43.0884C14.8575 43.275 14.5029 43.9583 14.7188 44.5892L15.0683 45.611C15.2842 46.2418 15.9829 46.5648 16.6032 46.3201L17.0113 46.1593C17.7937 45.8508 18.6849 46.0504 19.2608 46.6632C19.3646 46.7734 19.4713 46.8813 19.5807 46.9859C20.2187 47.5955 20.4102 48.5369 20.0397 49.3377L19.9198 49.5971C19.6399 50.2024 19.9219 50.9185 20.5392 51.1705L21.5391 51.5781C22.1564 51.8298 22.8589 51.5152 23.082 50.8868H23.0823ZM19.2629 40.9012C19.2629 37.6881 21.7472 35.0448 24.8955 34.7907C28.0438 35.0448 30.528 37.6881 30.528 40.9012C30.528 44.1143 28.0438 46.7581 24.8955 47.0119C21.7472 46.7581 19.2629 44.1143 19.2629 40.9012Z" fill="#97D4E7"/>
<path d="M42.8015 52.8646C42.9432 53.0154 43.0891 53.1625 43.2389 53.3055C44.1108 54.1386 44.3724 55.4253 43.8664 56.5197L43.7024 56.8744C43.3198 57.7015 43.7054 58.6806 44.549 59.0245L45.9156 59.5819C46.7593 59.9261 47.7194 59.4959 48.0243 58.6373L48.1235 58.3579C48.4921 57.3199 49.4271 56.6117 50.502 56.5049C51.5772 56.6119 52.512 57.3199 52.8806 58.3579L52.9798 58.6373C53.2847 59.4959 54.2448 59.9261 55.0884 59.5819L56.455 59.0245C57.2987 58.6803 57.6842 57.7013 57.3016 56.8744L57.1376 56.5197C56.6314 55.425 56.8932 54.1386 57.7651 53.3055C57.9149 53.1625 58.0606 53.0154 58.2026 52.8646C58.99 52.0269 60.208 51.7543 61.2772 52.1759L61.8348 52.3959C62.6825 52.7301 63.6375 52.2888 63.9324 51.4265L64.4102 50.0298C64.7051 49.1677 64.2204 48.2336 63.3458 47.9786C62.1362 47.6261 61.2957 46.5105 61.324 45.2504C61.3259 45.1635 61.3269 45.0764 61.3269 44.9893C61.3269 44.8234 61.3234 44.6583 61.3165 44.4942C61.2691 43.3867 61.8983 42.3605 62.8949 41.8757L63.7109 41.4791C64.5303 41.0806 64.8511 40.0784 64.4155 39.2781L63.7101 37.9818C63.2745 37.1815 62.2588 36.907 61.4794 37.3789C60.3687 38.0517 58.9438 37.8669 58.0348 36.9395C57.9125 36.8147 57.7875 36.6929 57.6598 36.5738C56.8174 35.7886 56.5475 34.5646 56.9715 33.4938L57.2898 32.6893C57.6251 31.842 57.1852 30.886 56.3235 30.59L54.9279 30.1103C54.0662 29.8142 53.1317 30.2977 52.8757 31.1722L52.7894 31.4674C52.4776 32.5322 51.5745 33.3069 50.5028 33.4586C49.4314 33.3069 48.5284 32.5322 48.2162 31.4674L48.1296 31.1722C47.8734 30.2977 46.9392 29.8142 46.0775 30.1103L44.6818 30.59C43.8202 30.886 43.3803 31.842 43.7156 32.6893L44.0339 33.4938C44.4576 34.5646 44.1877 35.7886 43.3454 36.5738C43.2177 36.6929 43.0926 36.815 42.9703 36.9395C42.0613 37.8669 40.6364 38.0517 39.5257 37.3789C38.7463 36.907 37.7309 37.1813 37.2951 37.9818L36.5893 39.2781C36.1538 40.0784 36.4745 41.0806 37.294 41.4791L38.1099 41.8757C39.1066 42.3605 39.7357 43.3867 39.6884 44.4942C39.6814 44.6583 39.6779 44.8234 39.6779 44.9893C39.6779 45.0767 39.679 45.1635 39.6809 45.2504C39.7091 46.5102 38.8687 47.6259 37.6591 47.9786C36.7842 48.2336 36.2997 49.1677 36.5947 50.0298L37.0724 51.4265C37.3674 52.2888 38.3223 52.7301 39.17 52.3959L39.7277 52.1759C40.7969 51.7543 42.0148 52.0272 42.8023 52.8646H42.8015ZM50.502 36.6383C54.8048 36.9855 58.2002 40.5982 58.2002 44.9896C58.2002 49.381 54.805 52.9942 50.502 53.3413C46.1993 52.9942 42.8039 49.381 42.8039 44.9896C42.8039 40.5982 46.199 36.9855 50.502 36.6383Z" fill="#97D4E7"/>
<path d="M76.9409 43.181C76.9409 59.6062 65.9561 74.3357 50.2278 79.0006C49.1954 79.3069 48.1412 79.5688 47.0805 79.785L48.1635 75.6617C46.0387 77.8817 42.4896 80.1171 39.5913 81.5011C42.6907 82.3417 46.5834 83.9043 49.0717 85.707L47.2107 81.7256C48.4122 81.489 49.6075 81.1959 50.776 80.8493C54.7892 79.6591 58.5719 77.8373 62.0192 75.4353C65.4178 73.0668 68.4104 70.1912 70.9135 66.8878C73.4445 63.5475 75.4128 59.8517 76.7635 55.9024C78.1605 51.8178 78.8689 47.5377 78.8689 43.181H76.9409Z" fill="#97D4E7"/>
<path d="M32.1064 6.57594L31.0253 10.71C33.1477 8.48782 36.6944 6.24842 39.5913 4.86117C36.4909 4.02381 32.5965 2.46581 30.1064 0.665527L31.9679 4.63691C30.3085 4.96362 28.6648 5.39924 27.0675 5.9365C23.2207 7.2299 19.6068 9.11086 16.3257 11.5272C13.0833 13.915 10.235 16.7742 7.85914 20.0255C5.4545 23.3166 3.58649 26.9389 2.30728 30.792C0.984514 34.776 0.313721 38.9442 0.313721 43.181H2.24168C2.24168 27.1137 12.4652 12.8806 27.6818 7.76421C29.1253 7.27884 30.6086 6.88087 32.1066 6.57594H32.1064Z" fill="#97D4E7"/>
</svg>
