<svg width="87" height="86" viewBox="0 0 87 86" fill="none" xmlns="http://www.w3.org/2000/svg">
<path d="M84.4094 80.4672C85.4214 70.0719 80.2406 61.0512 69.8408 58.4801C69.7125 55.3653 66.7544 56.0852 64.4535 56.0816V56.0556C64.3469 56.065 64.2381 56.0715 64.127 56.0754C64.0158 56.0712 63.9067 56.0647 63.8004 56.0556V56.0816C61.4995 56.0849 58.5414 55.3653 58.4131 58.4801C48.0133 61.0512 42.8325 70.0719 43.8445 80.4672L41.4093 81.8213V85.7069H86.8443V81.8213L84.4091 80.4672H84.4094ZM85.122 83.9733H43.1316V82.8832L45.6431 81.4237L45.6263 81.3944C44.8203 71.927 48.3696 63.1102 58.3954 60.4071V71.1207H60.1177V59.0458C60.1177 57.7895 60.3461 57.7895 60.7243 57.7895H67.5289C67.9072 57.7895 68.1356 57.7895 68.1356 59.0458V71.1207H69.8579V60.4071C79.8836 63.1102 83.4329 71.927 82.627 81.3944L82.6102 81.4237L85.1216 82.8832V83.9733H85.122Z" fill="#97D4E7"/>
<path d="M42.1372 79.0116H35.1064V73.3921H42.5151C42.7092 72.325 42.9747 71.2872 43.3091 70.2835H35.1064V64.3054H46.4504C47.3251 63.1564 48.3171 62.1179 49.4157 61.1968H35.1064V55.2187H58.3412C58.4161 55.1644 58.4901 55.1147 58.5634 55.0698C59.5286 54.4745 60.6611 54.3978 61.54 54.3978C61.7603 54.3978 61.9797 54.4033 62.197 54.4108V54.2937L63.9407 54.4475C63.9982 54.453 64.0605 54.4569 64.1271 54.4602C64.1936 54.4573 64.2559 54.453 64.3134 54.4475L65.8791 54.3093C65.8797 46.9068 65.8742 40.9137 65.8494 40.8497L65.8636 40.8438C65.8064 40.705 65.7728 40.5545 65.6921 40.429L59.8985 26.4332V9.38285C59.8985 8.64449 59.5932 7.97797 59.1039 7.50264L59.1924 7.34885L47.7941 0.725351L47.6901 0.906447L47.6853 0.903521L33.1376 26.2667L18.5554 0.843697L18.5506 0.846623L18.4472 0.665527L7.04933 7.28935L7.13719 7.44314C6.64782 7.91848 6.34322 8.58499 6.34322 9.32335V26.374L0.549621 40.3695C0.468221 40.495 0.434951 40.6455 0.377454 40.7843L0.391667 40.7902C0.327064 40.9583 0.391667 81.9163 0.369702 82.1201H31.9586V82.1799H39.806V80.869L42.1643 79.5574C42.1536 79.375 42.1443 79.1926 42.1368 79.0116H42.1372ZM35.1064 29.1708L49.1085 4.75921L56.9038 9.28889L56.9031 26.6439H56.9038L62.7242 40.6289V43.0238H35.1064V29.1708ZM35.1064 46.1324H62.7242V52.1105H35.1064V46.1324ZM31.1349 78.9521H3.51748V73.3326H31.1349V78.9521ZM31.1349 70.224H3.51748V64.2459H31.1349V70.224ZM31.1349 61.1373H3.51748V55.1592H31.1349V61.1373ZM31.1349 52.0507H3.51748V46.0725H31.1349V52.0507ZM31.1349 42.964H3.51748V40.5691L9.33789 26.5841V9.22907L17.1326 4.69939L31.1349 29.111V42.964Z" fill="#97D4E7"/>
</svg>
