<svg width="70" height="86" viewBox="0 0 70 86" fill="none" xmlns="http://www.w3.org/2000/svg">
<path d="M3.54984 56.7439C6.50894 55.8725 8.56464 53.116 8.49545 50.0033C8.49064 49.7887 8.48824 49.5736 8.48824 49.3581C8.48824 49.0658 8.49401 48.7755 8.50314 48.4852H16.1556C16.1436 48.7746 16.1364 49.0654 16.1364 49.3581C16.1364 60.2086 24.4414 69.1362 34.9669 69.9935C45.4925 69.1362 53.7975 60.2086 53.7975 49.3581C53.7975 49.0658 53.7903 48.775 53.7782 48.4852H61.4307C61.4393 48.775 61.4456 49.0658 61.4456 49.3581C61.4456 49.5736 61.4432 49.7887 61.4384 50.0033C61.3692 53.116 63.4254 55.8725 66.384 56.7439C68.5238 57.374 69.7093 59.6819 68.988 61.8121L67.8194 65.2627C67.0981 67.3934 64.7617 68.4837 62.6882 67.6575L61.324 67.1143C58.7085 66.0725 55.7292 66.7468 53.8032 68.8158C53.4563 69.1886 53.0997 69.5518 52.7336 69.9052C50.601 71.9635 49.9609 75.1423 51.1988 77.8468L51.6 78.7231C52.5356 80.7668 51.5923 83.1859 49.5289 84.0359L46.1863 85.4132C44.1225 86.2637 41.7741 85.2006 41.0283 83.0791L40.7857 82.3888C39.8842 79.8241 37.5969 78.074 34.9674 77.8099C32.3375 78.074 30.0506 79.8241 29.1487 82.3888L28.906 83.0791C28.1602 85.201 25.8114 86.2637 23.748 85.4132L20.4054 84.0359C18.3415 83.1854 17.3987 80.7668 18.3343 78.7231L18.7356 77.8468C19.9739 75.1423 19.3333 71.9635 17.2007 69.9052C16.8346 69.5518 16.478 69.1886 16.1311 68.8158C14.2051 66.7463 11.2258 66.0725 8.61029 67.1143L7.24607 67.6575C5.17258 68.4833 2.83624 67.3929 2.11496 65.2627L0.946312 61.8121C0.225037 59.6819 1.41051 57.374 3.55032 56.7439H3.54984Z" fill="#97D4E7"/>
<path d="M34.4812 45.004H1.17175V39.2023L4.79446 37.1803C3.28896 21.6587 10.9962 8.18964 26.4674 4.35063C26.6581 -0.300077 31.0588 0.77473 34.4816 0.76939V0.730554C34.6402 0.744632 34.8022 0.754341 34.9675 0.760167C35.1328 0.753856 35.2952 0.744146 35.4533 0.730554V0.76939C38.8761 0.774245 43.2768 -0.300077 43.4676 4.35063C58.9382 8.18964 66.6455 21.6587 65.14 37.1803L68.7627 39.2023V45.004H34.4812ZM66.2005 40.7878L62.4644 38.6086L62.4894 38.5649C63.6883 24.4288 58.4082 11.2641 43.4935 7.22795V23.2248H40.9313V5.19484C40.9313 3.31903 40.5916 3.31903 40.0289 3.31903H29.906C29.3433 3.31903 29.0036 3.31903 29.0036 5.19484V23.2243H26.4414V7.22746C11.5267 11.2636 6.24662 24.4283 7.44555 38.5644L7.47054 38.6081L3.73441 40.7873V42.415H66.2005V40.7873V40.7878Z" fill="#97D4E7"/>
</svg>
