<svg width="1440" height="528" viewBox="0 0 1440 528" fill="none" xmlns="http://www.w3.org/2000/svg">
<path d="M0.222218 0H1440.22V506.5C1219.22 282.5 1041.22 552 843.722 526C646.222 500 700.222 498 545.222 452C390.222 406 104.222 478.5 0.222221 395C-103.778 311.5 0.222218 198 0.222218 0Z" fill="#A4E48D"/>
<path d="M0.222282 -0.000106812C7.72227 -201.5 1440.22 -0.000106812 1440.22 -0.000106812V518C1235.22 326 950.722 453 880.722 453C810.722 453 742.222 447 610.722 378C479.222 309 289.222 420 163.722 378C38.2223 336 -7.2777 201.5 0.222282 -0.000106812Z" fill="#97D4E7"/>
</svg>
